<svg width="1139" height="1104" viewBox="0 0 1139 1104" fill="none" xmlns="http://www.w3.org/2000/svg">
<g filter="url(#filter0_f_4_284)">
<g filter="url(#filter1_f_4_284)">
<path d="M-316.277 928.465C-244.415 745.542 2.43111 670.529 235.704 762.171C468.978 853.813 598.76 1076.78 526.898 1259.71C455.036 1442.63 208.19 1517.64 -25.0836 1426C-258.357 1334.36 -388.139 1111.39 -316.277 928.465Z" stroke="#3949AB" stroke-width="4"/>
</g>
<g filter="url(#filter2_f_4_284)">
<path d="M-228.74 1100.87C-209.08 1050.82 -159.376 1017.75 -94.3845 1005.01C-29.4199 992.278 50.5324 999.958 130.021 1031.19C209.51 1062.41 273.31 1111.21 312.238 1164.75C351.182 1218.32 365.08 1276.38 345.42 1326.43C325.76 1376.47 276.056 1409.55 211.064 1422.29C146.1 1435.02 66.1476 1427.34 -13.3412 1396.11C-92.83 1364.88 -156.63 1316.09 -195.558 1262.54C-234.502 1208.98 -248.4 1150.91 -228.74 1100.87Z" stroke="#3949AB" stroke-width="4"/>
</g>
<path d="M-218.242 1191.25C-213.104 1178.17 -201.515 1168.12 -184.546 1161.28C-167.571 1154.44 -145.387 1150.89 -119.458 1150.73C-67.6109 1150.41 -1.21305 1163.65 67.3944 1190.6C136.002 1217.55 193.657 1253.05 231.422 1288.57C250.309 1306.34 264.144 1324.04 271.922 1340.61C279.698 1357.17 281.348 1372.42 276.21 1385.5C271.071 1398.58 259.483 1408.63 242.513 1415.47C225.538 1422.31 203.355 1425.86 177.425 1426.02C125.578 1426.34 59.1806 1413.1 -9.42682 1386.15C-78.0342 1359.2 -135.69 1323.7 -173.455 1288.18C-192.342 1270.41 -206.176 1252.71 -213.955 1236.14C-221.73 1219.58 -223.381 1204.33 -218.242 1191.25Z" stroke="#3949AB" stroke-width="4"/>
<g filter="url(#filter4_f_4_284)">
<path d="M-318.115 921.992C-244.494 734.592 5.48897 656.669 240.83 749.124C476.171 841.578 606.271 1068.82 532.65 1256.22C459.029 1443.62 209.046 1521.54 -26.2951 1429.09C-261.636 1336.63 -391.736 1109.39 -318.115 921.992Z" stroke="white" stroke-width="4"/>
</g>
<g filter="url(#filter5_f_4_284)">
<path d="M-319.954 915.52C-244.574 723.643 8.54581 642.81 245.956 736.077C483.366 829.344 613.783 1060.85 538.403 1252.73C463.024 1444.6 209.904 1525.44 -27.5066 1432.17C-264.917 1338.9 -395.333 1107.4 -319.954 915.52Z" stroke="white" stroke-width="4"/>
</g>
<g filter="url(#filter6_f_4_284)">
<path d="M-321.792 909.046C-244.654 712.693 11.6016 628.948 251.082 723.029C490.562 817.109 621.294 1052.88 544.156 1249.24C467.018 1445.59 210.762 1529.33 -28.7182 1435.25C-268.198 1341.17 -398.93 1105.4 -321.792 909.046Z" stroke="#2D5775" stroke-width="4"/>
</g>
<g filter="url(#filter7_f_4_284)">
<path d="M-323.631 902.573C-244.735 701.744 14.6564 615.087 256.207 709.981C497.758 804.875 628.805 1044.92 549.908 1245.75C471.012 1446.57 211.621 1533.23 -29.9298 1438.34C-271.481 1343.44 -402.527 1103.4 -323.631 902.573Z" stroke="white" stroke-width="4"/>
</g>
<g filter="url(#filter8_f_4_284)">
<path d="M-330.985 876.682C-245.057 657.955 26.8685 559.641 276.71 657.792C526.552 755.943 658.847 1013.06 572.919 1231.78C486.992 1450.51 215.066 1548.83 -34.7758 1450.67C-284.618 1352.52 -416.913 1095.41 -330.985 876.682Z" stroke="#0A2B80" stroke-width="4"/>
</g>
<g filter="url(#filter9_f_4_284)">
<path d="M-332.823 870.209C-245.138 647.008 29.9196 545.778 281.836 644.744C533.753 743.71 666.357 1005.09 578.672 1228.29C490.987 1451.49 215.929 1552.72 -35.9872 1453.76C-287.904 1354.79 -420.509 1093.41 -332.823 870.209Z" stroke="#203A52" stroke-width="4"/>
</g>
<g filter="url(#filter10_f_4_284)">
<path d="M-334.662 863.736C-245.22 636.062 32.9697 531.915 286.962 631.697C540.953 731.478 673.867 997.128 584.425 1224.8C494.982 1452.48 216.793 1556.62 -37.199 1456.84C-291.191 1357.06 -424.105 1091.41 -334.662 863.736Z" stroke="#0A2B80" stroke-width="4"/>
</g>
<g filter="url(#filter11_f_4_284)">
<path d="M-343.854 831.372C-245.627 581.337 48.2129 462.598 312.59 566.46C576.968 670.321 711.416 957.314 613.188 1207.35C514.961 1457.38 221.121 1576.12 -43.2565 1472.26C-307.634 1368.4 -442.082 1081.41 -343.854 831.372Z" stroke="#05275A" stroke-width="4"/>
</g>
<g filter="url(#filter12_f_4_284)">
<path d="M-345.693 824.899C-245.71 570.393 51.2594 448.734 317.716 553.412C584.172 658.09 718.925 949.352 618.941 1203.86C518.957 1458.37 221.988 1580.02 -44.4683 1475.35C-310.925 1370.67 -445.677 1079.41 -345.693 824.899Z" stroke="white" stroke-width="4"/>
</g>
<g filter="url(#filter13_f_4_284)">
<path d="M-347.531 818.427C-245.791 559.449 54.3063 434.87 322.842 540.365C591.378 645.86 726.434 941.391 624.694 1200.37C522.954 1459.35 222.856 1583.92 -45.6794 1478.43C-314.215 1372.93 -449.271 1077.4 -347.531 818.427Z" stroke="#0A2B80" stroke-width="4"/>
</g>
<g filter="url(#filter14_f_4_284)">
<path d="M-349.37 811.954C-245.874 548.506 57.3519 421.005 327.967 527.318C598.583 633.63 733.943 933.429 630.446 1196.88C526.95 1460.33 223.724 1587.83 -46.8912 1481.51C-317.507 1375.2 -452.867 1075.4 -349.37 811.954Z" stroke="#0A2B80" stroke-width="4"/>
</g>
<g filter="url(#filter15_f_4_284)">
<path d="M-351.209 805.48C-245.956 537.562 60.3973 407.14 333.093 514.27C605.789 621.399 741.451 925.468 636.199 1193.39C530.947 1461.3 224.593 1591.73 -48.1028 1484.6C-320.799 1377.47 -456.461 1073.4 -351.209 805.48Z" stroke="#0A2B80" stroke-width="4"/>
</g>
<g filter="url(#filter16_f_4_284)">
<path d="M-353.047 799.008C-246.039 526.62 63.4423 393.276 338.219 501.223C612.995 609.169 748.96 917.508 641.952 1189.9C534.943 1462.28 225.462 1595.63 -49.3143 1487.68C-324.091 1379.73 -460.056 1071.4 -353.047 799.008Z" stroke="#1A295B" stroke-width="4"/>
</g>
<g filter="url(#filter17_f_4_284)">
<path d="M-353.047 799.008C-246.039 526.62 63.4423 393.276 338.219 501.223C612.995 609.169 748.96 917.508 641.952 1189.9C534.943 1462.28 225.462 1595.63 -49.3143 1487.68C-324.091 1379.73 -460.056 1071.4 -353.047 799.008Z" stroke="#1A295B" stroke-width="4"/>
</g>
<g filter="url(#filter18_f_4_284)">
<path d="M-312.108 936.675C-241.794 757.691 0.924006 684.724 230.672 774.981C460.42 865.238 588.57 1083.9 518.256 1262.89C447.942 1441.87 205.223 1514.84 -24.5245 1424.58C-254.272 1334.32 -382.423 1115.66 -312.108 936.675Z" stroke="#3949AB" stroke-width="4"/>
</g>
<g filter="url(#filter19_f_4_284)">
<path d="M-307.94 944.885C-239.174 769.841 -0.583404 698.92 225.639 787.792C451.862 876.664 578.38 1091.02 509.614 1266.06C440.848 1441.11 202.258 1512.03 -23.9652 1423.16C-250.188 1334.28 -376.706 1119.93 -307.94 944.885Z" stroke="#3949AB" stroke-width="4"/>
</g>
<g filter="url(#filter20_f_4_284)">
<path d="M-303.772 953.094C-236.553 781.992 -2.09167 713.114 220.607 800.602C443.305 888.09 568.19 1098.14 500.972 1269.24C433.754 1440.34 199.292 1509.22 -23.4063 1421.73C-246.105 1334.25 -370.99 1124.2 -303.772 953.094Z" stroke="#3949AB" stroke-width="4"/>
</g>
<g filter="url(#filter21_f_4_284)">
<path d="M-299.603 961.304C-266.756 877.694 -192.815 819.218 -99.5783 792.383C-6.33905 765.548 106.091 770.401 215.574 813.412C325.058 856.423 410.728 929.394 460.769 1012.52C510.809 1095.64 525.177 1188.81 492.331 1272.42C459.484 1356.03 385.543 1414.5 292.306 1441.34C199.067 1468.17 86.6365 1463.32 -22.8468 1420.31C-132.33 1377.3 -218 1304.33 -268.041 1221.2C-318.081 1138.08 -332.449 1044.91 -299.603 961.304Z" stroke="#3949AB" stroke-width="4"/>
</g>
<g filter="url(#filter22_f_4_284)">
<path d="M-295.434 969.514C-263.362 887.875 -190.843 830.895 -99.2696 804.891C-7.69453 778.886 102.824 783.905 210.542 826.223C318.26 868.54 402.643 940.088 452.03 1021.47C501.417 1102.85 515.761 1193.96 483.689 1275.59C451.617 1357.23 379.097 1414.21 287.524 1440.22C195.949 1466.22 85.4302 1461.2 -22.2876 1418.89C-130.005 1376.57 -214.388 1305.02 -263.776 1223.64C-313.162 1142.26 -327.507 1051.15 -295.434 969.514Z" stroke="#3949AB" stroke-width="4"/>
</g>
<g filter="url(#filter23_f_4_284)">
<path d="M-291.266 977.723C-259.968 898.056 -188.871 842.572 -98.9614 817.398C-9.05032 792.223 99.5569 797.409 205.509 839.032C311.462 880.656 394.558 950.781 443.291 1030.42C492.024 1110.06 506.345 1199.1 475.047 1278.77C443.749 1358.44 372.652 1413.92 282.742 1439.1C192.831 1464.27 84.224 1459.09 -21.7285 1417.46C-127.681 1375.84 -210.777 1305.71 -259.51 1226.07C-308.243 1146.43 -322.564 1057.39 -291.266 977.723Z" stroke="#3949AB" stroke-width="4"/>
</g>
<g filter="url(#filter24_f_4_284)">
<path d="M-287.098 985.933C-256.575 908.237 -186.9 854.249 -98.6534 829.904C-10.4063 805.56 96.2895 810.912 200.477 851.843C304.664 892.773 386.473 961.475 434.552 1039.38C482.632 1117.28 496.928 1204.25 466.405 1281.95C435.882 1359.64 366.207 1413.63 277.961 1437.98C189.714 1462.32 83.0179 1456.97 -21.1694 1416.04C-125.357 1375.11 -207.165 1306.41 -255.245 1228.51C-303.324 1150.61 -317.621 1063.63 -287.098 985.933Z" stroke="#3949AB" stroke-width="4"/>
</g>
<g filter="url(#filter25_f_4_284)">
<path d="M-282.929 994.143C-253.181 918.419 -184.929 865.926 -98.3456 842.412C-11.7625 818.898 93.0221 824.416 195.444 864.653C297.866 904.89 378.388 972.17 425.814 1048.33C473.24 1124.49 487.512 1209.4 457.763 1285.13C428.015 1360.85 359.763 1413.34 273.18 1436.86C186.596 1460.37 81.8119 1454.85 -20.6102 1414.62C-123.032 1374.38 -203.554 1307.1 -250.98 1230.94C-298.406 1154.78 -312.678 1069.87 -282.929 994.143Z" stroke="#3949AB" stroke-width="4"/>
</g>
<g filter="url(#filter26_f_4_284)">
<path d="M-278.761 1002.35C-249.787 928.601 -182.958 877.603 -98.0381 854.919C-13.1188 832.235 89.7546 837.92 190.412 877.463C291.069 917.007 370.303 982.863 417.076 1057.28C463.848 1131.7 478.095 1214.55 449.122 1288.3C420.148 1362.05 353.319 1413.05 268.399 1435.74C183.48 1458.42 80.6061 1452.74 -20.051 1413.19C-120.708 1373.65 -199.943 1307.79 -246.715 1233.37C-293.487 1158.95 -307.734 1076.1 -278.761 1002.35Z" stroke="#3949AB" stroke-width="4"/>
</g>
<g filter="url(#filter27_f_4_284)">
<path d="M-274.593 1010.56C-246.394 938.783 -180.989 889.28 -97.7313 867.426C-14.4756 845.572 86.4868 851.423 185.379 890.273C284.271 929.123 362.219 993.558 408.337 1066.24C454.457 1138.92 468.678 1219.7 440.48 1291.48C412.281 1363.26 346.876 1412.76 263.618 1434.62C180.363 1456.47 79.4002 1450.62 -19.492 1411.77C-118.384 1372.92 -196.332 1308.48 -242.45 1235.81C-288.569 1163.13 -302.791 1082.34 -274.593 1010.56Z" stroke="#3949AB" stroke-width="4"/>
</g>
<g filter="url(#filter28_f_4_284)">
<path d="M-270.424 1018.77C-243 948.966 -179.019 900.958 -97.4242 879.934C-15.8322 858.91 83.2194 864.927 180.347 903.084C277.474 941.24 354.135 1004.25 399.6 1075.19C445.066 1146.13 459.262 1224.85 431.838 1294.66C404.415 1364.46 340.433 1412.47 258.839 1433.5C177.247 1454.52 78.195 1448.5 -18.9325 1410.35C-116.06 1372.19 -192.721 1309.18 -238.185 1238.24C-283.651 1167.3 -297.847 1088.58 -270.424 1018.77Z" stroke="#3949AB" stroke-width="4"/>
</g>
<g filter="url(#filter29_f_4_284)">
<path d="M-266.256 1026.98C-239.608 959.148 -177.051 912.635 -97.1182 892.44C-17.1897 872.246 79.9511 878.43 175.314 915.893C270.677 953.357 346.051 1014.95 390.862 1084.14C435.675 1153.35 449.844 1230 423.196 1297.83C396.548 1365.67 333.991 1412.18 254.058 1432.37C174.13 1452.57 76.9892 1446.39 -18.3737 1408.92C-113.737 1371.46 -189.111 1309.87 -233.921 1240.67C-278.734 1171.47 -292.904 1094.81 -266.256 1026.98Z" stroke="#3949AB" stroke-width="4"/>
</g>
<g filter="url(#filter30_f_4_284)">
<path d="M-262.087 1035.19C-236.214 969.332 -175.083 924.314 -96.8121 904.948C-18.5469 885.584 76.6833 891.934 170.282 928.704C263.88 965.474 337.968 1025.64 382.125 1093.1C426.285 1160.56 440.427 1235.15 414.555 1301.01C388.682 1366.87 327.55 1411.89 249.28 1431.25C171.014 1450.62 75.7842 1444.27 -17.8142 1407.5C-111.413 1370.73 -185.5 1310.56 -229.657 1243.1C-273.817 1175.64 -287.96 1101.05 -262.087 1035.19Z" stroke="#3949AB" stroke-width="4"/>
</g>
<g filter="url(#filter31_f_4_284)">
<path d="M-257.919 1043.4C-232.821 979.517 -173.116 935.992 -96.5065 917.456C-19.9046 898.921 73.4152 905.437 165.249 941.514C257.083 977.592 329.885 1036.34 373.388 1102.06C416.895 1167.78 431.01 1240.31 405.913 1304.19C380.816 1368.07 321.11 1411.6 244.501 1430.13C167.899 1448.67 74.5791 1442.15 -17.255 1406.08C-109.089 1370 -181.89 1311.25 -225.393 1245.54C-268.9 1179.81 -283.016 1107.29 -257.919 1043.4Z" stroke="#3949AB" stroke-width="4"/>
</g>
<g filter="url(#filter32_f_4_284)">
<path d="M-253.75 1051.61C-229.429 989.702 -171.15 947.671 -96.2017 929.963C-21.2628 912.258 70.1467 918.94 160.217 954.325C250.287 989.709 321.801 1047.03 364.651 1111.01C407.505 1175 421.592 1245.46 397.271 1307.37C372.95 1369.28 314.67 1411.31 239.722 1429.01C164.783 1446.72 73.374 1440.04 -16.696 1404.65C-106.766 1369.27 -178.281 1311.94 -221.13 1247.97C-263.985 1183.98 -278.071 1113.52 -253.75 1051.61Z" stroke="#3949AB" stroke-width="4"/>
</g>
<g filter="url(#filter33_f_4_284)">
<path d="M-249.582 1059.82C-226.037 999.886 -169.184 959.349 -95.8973 942.471C-22.6214 925.595 66.8781 932.443 155.184 967.135C243.49 1001.83 313.719 1057.73 355.914 1119.97C398.116 1182.21 412.174 1250.61 388.629 1310.54C365.084 1370.48 308.232 1411.01 234.944 1427.89C161.668 1444.77 72.1691 1437.92 -16.1369 1403.23C-104.443 1368.54 -174.672 1312.64 -216.867 1250.4C-259.069 1188.15 -273.127 1119.75 -249.582 1059.82Z" stroke="#3949AB" stroke-width="4"/>
</g>
<g filter="url(#filter34_f_4_284)">
<path d="M-245.413 1068.03C-222.645 1010.07 -167.22 971.028 -95.5933 954.979C-23.9801 938.932 63.6095 945.947 150.152 979.945C236.694 1013.94 305.636 1068.42 347.178 1128.92C388.728 1189.43 402.756 1255.76 379.987 1313.72C357.219 1371.68 301.794 1410.72 230.167 1426.77C158.554 1442.82 70.9646 1435.8 -15.5776 1401.81C-102.12 1367.81 -171.062 1313.33 -212.604 1252.83C-254.154 1192.32 -268.182 1125.99 -245.413 1068.03Z" stroke="#3949AB" stroke-width="4"/>
</g>
<g filter="url(#filter35_f_4_284)">
<path d="M-241.245 1076.24C-219.253 1020.26 -165.257 982.706 -95.2902 967.486C-25.3395 952.268 60.3404 959.449 145.119 992.754C229.897 1026.06 297.554 1079.12 338.443 1137.88C379.34 1196.65 393.338 1260.92 371.345 1316.9C349.353 1372.88 295.357 1410.43 225.391 1425.65C155.44 1440.87 69.7599 1433.69 -15.0186 1400.38C-99.797 1367.08 -167.454 1314.02 -208.342 1255.26C-249.24 1196.48 -263.237 1132.22 -241.245 1076.24Z" stroke="#3949AB" stroke-width="4"/>
</g>
<g filter="url(#filter36_f_4_284)">
<path d="M-237.077 1084.45C-215.861 1030.45 -163.295 994.386 -94.9874 979.994C-26.699 965.606 57.0715 972.953 140.087 1005.57C223.102 1038.18 289.473 1089.81 329.707 1146.84C369.953 1203.87 383.919 1266.07 362.704 1320.07C341.489 1374.08 288.922 1410.14 220.615 1424.53C152.326 1438.92 68.5558 1431.57 -14.4593 1398.96C-97.4743 1366.35 -163.845 1314.71 -204.08 1257.69C-244.326 1200.65 -258.292 1138.45 -237.077 1084.45Z" stroke="#3949AB" stroke-width="4"/>
</g>
<g filter="url(#filter37_f_4_284)">
<path d="M-232.908 1092.66C-212.47 1040.64 -161.334 1006.07 -94.6852 992.502C-28.0588 978.943 53.8024 986.456 135.054 1018.38C216.306 1050.3 281.392 1100.51 320.973 1155.79C360.568 1211.1 374.5 1271.23 354.062 1323.25C333.624 1375.28 282.489 1409.85 215.84 1423.41C149.213 1436.97 67.3519 1429.46 -13.8999 1397.54C-95.1516 1365.62 -160.237 1315.4 -199.819 1260.12C-239.413 1204.81 -253.346 1144.68 -232.908 1092.66Z" stroke="#3949AB" stroke-width="4"/>
</g>
<g filter="url(#filter38_f_4_284)">
<path d="M-228.24 1105.17C-209.023 1056.26 -159.943 1024.09 -95.5745 1011.95C-31.2367 999.81 48.0689 1007.75 127.039 1038.78C206.009 1069.8 269.515 1117.96 308.386 1170.65C347.276 1223.36 361.342 1280.32 342.124 1329.24C322.907 1378.16 273.828 1410.32 209.459 1422.46C145.121 1434.6 65.8154 1426.66 -13.1547 1395.64C-92.1248 1364.61 -155.631 1316.45 -194.502 1263.77C-233.392 1211.06 -247.457 1154.09 -228.24 1105.17Z" stroke="#3949AB" stroke-width="4"/>
</g>
<g filter="url(#filter39_f_4_284)">
<path d="M-227.74 1109.48C-208.966 1061.69 -160.512 1030.44 -96.7646 1018.89C-33.0536 1007.34 45.6055 1015.55 124.057 1046.37C202.509 1077.19 265.721 1124.71 304.535 1176.54C343.371 1228.4 357.603 1284.27 338.829 1332.05C320.055 1379.84 271.6 1411.09 207.853 1422.64C144.142 1434.19 65.4834 1425.98 -12.9681 1395.16C-91.4197 1364.34 -154.632 1316.82 -193.446 1264.99C-232.282 1213.14 -246.514 1157.27 -227.74 1109.48Z" stroke="#3949AB" stroke-width="4"/>
</g>
<g filter="url(#filter40_f_4_284)">
<path d="M-227.24 1113.78C-208.909 1067.12 -161.081 1036.79 -97.9552 1025.83C-34.8708 1014.87 43.1418 1023.34 121.075 1053.96C199.008 1084.58 261.926 1131.47 300.684 1182.44C339.467 1233.44 353.864 1288.21 335.533 1334.87C317.202 1381.53 269.374 1411.85 206.248 1422.82C143.164 1433.78 65.1513 1425.31 -12.7817 1394.69C-90.7147 1364.07 -153.633 1317.18 -192.391 1266.21C-231.173 1215.21 -245.571 1160.44 -227.24 1113.78Z" stroke="#3949AB" stroke-width="4"/>
</g>
<g filter="url(#filter41_f_4_284)">
<path d="M-226.74 1118.08C-208.853 1072.55 -161.652 1043.14 -99.1463 1032.77C-36.6882 1022.4 40.678 1031.14 118.093 1061.55C195.507 1091.96 258.132 1138.22 296.833 1188.33C335.563 1238.48 350.124 1292.15 332.237 1337.68C314.35 1383.21 267.149 1412.62 204.644 1423C142.185 1433.36 64.8192 1424.63 -12.5953 1394.21C-90.0098 1363.8 -152.634 1317.54 -191.335 1267.43C-230.065 1217.29 -244.627 1163.62 -226.74 1118.08Z" stroke="#3949AB" stroke-width="4"/>
</g>
<g filter="url(#filter42_f_4_284)">
<path d="M-226.24 1122.39C-208.797 1077.99 -162.223 1049.49 -100.338 1039.71C-38.506 1029.93 38.2139 1038.93 115.11 1069.14C192.006 1099.35 254.337 1144.98 292.982 1194.22C331.66 1243.52 346.384 1296.09 328.941 1340.49C311.498 1384.89 264.924 1413.39 203.039 1423.17C141.207 1432.95 64.4869 1423.95 -12.4092 1393.74C-89.3053 1363.53 -151.636 1317.9 -190.281 1268.66C-228.959 1219.37 -243.684 1166.79 -226.24 1122.39Z" stroke="#3949AB" stroke-width="4"/>
</g>
<g filter="url(#filter43_f_4_284)">
<path d="M-225.741 1126.69C-208.742 1083.42 -162.797 1055.84 -101.53 1046.65C-40.3238 1037.46 35.75 1046.73 112.128 1076.73C188.505 1106.74 250.543 1151.73 289.131 1200.12C327.757 1248.56 342.645 1300.04 325.645 1343.31C308.646 1386.58 262.701 1414.16 201.435 1423.35C140.229 1432.53 64.1548 1423.27 -12.2229 1393.27C-88.6006 1363.26 -150.638 1318.27 -189.226 1269.88C-227.853 1221.44 -242.74 1169.96 -225.741 1126.69Z" stroke="#3949AB" stroke-width="4"/>
</g>
<g filter="url(#filter44_f_4_284)">
<path d="M-225.24 1131C-208.686 1088.86 -163.37 1062.19 -102.722 1053.59C-42.1413 1044.99 33.2865 1054.52 109.146 1084.32C185.005 1114.13 246.749 1158.49 285.281 1206.02C323.857 1253.6 338.905 1303.98 322.35 1346.12C305.795 1388.26 260.48 1414.92 199.831 1423.53C139.251 1432.12 63.8232 1422.59 -12.0361 1392.79C-87.8955 1362.99 -149.64 1318.63 -188.172 1271.1C-226.747 1223.52 -241.795 1173.14 -225.24 1131Z" stroke="#3949AB" stroke-width="4"/>
</g>
<g filter="url(#filter45_f_4_284)">
<path d="M-224.741 1135.3C-208.631 1094.29 -163.946 1068.54 -103.914 1060.53C-43.9594 1052.52 30.8225 1062.32 106.164 1091.92C181.505 1121.51 242.956 1165.24 281.432 1211.91C319.957 1258.64 335.164 1307.92 319.054 1348.93C302.944 1389.94 258.26 1415.69 198.228 1423.71C138.273 1431.71 63.4912 1421.91 -11.8498 1392.32C-87.1909 1362.72 -148.642 1318.99 -187.118 1272.32C-225.643 1225.59 -240.851 1176.31 -224.741 1135.3Z" stroke="#3949AB" stroke-width="4"/>
</g>
<g filter="url(#filter46_f_4_284)">
<path d="M-224.241 1139.6C-208.576 1099.73 -164.523 1074.89 -105.107 1067.47C-45.7775 1060.06 28.3586 1070.11 103.181 1099.51C178.004 1128.9 239.162 1171.99 277.582 1217.81C316.058 1263.69 331.424 1311.87 315.759 1351.75C300.094 1391.62 256.041 1416.46 196.625 1423.88C137.296 1431.29 63.1595 1421.24 -11.6633 1391.84C-86.4861 1362.45 -147.644 1319.36 -186.064 1273.54C-224.54 1227.66 -239.906 1179.48 -224.241 1139.6Z" stroke="#3949AB" stroke-width="4"/>
</g>
<g filter="url(#filter47_f_4_284)">
<path d="M-223.741 1143.91C-208.522 1105.17 -165.102 1081.24 -106.301 1074.41C-47.5964 1067.58 25.8941 1077.91 100.199 1107.1C174.503 1136.29 235.369 1178.75 273.733 1223.7C312.16 1268.73 327.682 1315.82 312.463 1354.56C297.243 1393.3 253.823 1417.23 195.022 1424.06C136.318 1430.88 62.8272 1420.56 -11.4774 1391.37C-85.782 1362.18 -146.647 1319.72 -185.011 1274.76C-223.439 1229.73 -238.961 1182.65 -223.741 1143.91Z" stroke="#3949AB" stroke-width="4"/>
</g>
<g filter="url(#filter48_f_4_284)">
<path d="M-223.241 1148.21C-208.467 1110.6 -165.682 1087.59 -107.494 1081.34C-49.4147 1075.11 23.4302 1085.7 97.2167 1114.69C171.003 1143.68 231.576 1185.5 269.884 1229.6C308.264 1273.78 323.941 1319.76 309.167 1357.37C294.393 1394.98 251.608 1418 193.42 1424.24C135.341 1430.47 62.4956 1419.88 -11.2908 1390.89C-85.0773 1361.91 -145.65 1320.08 -183.959 1275.98C-222.338 1231.8 -238.015 1185.82 -223.241 1148.21Z" stroke="#3949AB" stroke-width="4"/>
</g>
<g filter="url(#filter49_f_4_284)">
<path d="M-222.741 1152.52C-208.413 1116.04 -166.264 1093.94 -108.688 1088.28C-51.2332 1082.64 20.9664 1093.5 94.2347 1122.28C167.503 1151.06 227.783 1192.26 266.036 1235.5C304.37 1278.83 320.2 1323.71 305.871 1360.18C291.543 1396.65 249.395 1418.76 191.819 1424.41C134.364 1430.05 62.1642 1419.2 -11.1042 1390.42C-84.3725 1361.63 -144.652 1320.44 -182.906 1277.2C-221.239 1233.87 -237.069 1188.99 -222.741 1152.52Z" stroke="#3949AB" stroke-width="4"/>
</g>
<g filter="url(#filter50_f_4_284)">
<path d="M-222.241 1156.82C-208.359 1121.48 -166.848 1100.28 -109.883 1095.22C-53.0521 1090.18 18.5023 1101.29 91.2525 1129.87C164.003 1158.45 223.99 1199.01 262.189 1241.39C300.477 1283.87 316.458 1327.66 302.576 1363C288.694 1398.33 247.183 1419.53 190.218 1424.59C133.387 1429.64 61.8326 1418.52 -10.9177 1389.94C-83.6679 1361.36 -143.656 1320.8 -181.854 1278.42C-220.142 1235.94 -236.123 1192.16 -222.241 1156.82Z" stroke="#3949AB" stroke-width="4"/>
</g>
<g filter="url(#filter51_f_4_284)">
<path d="M-221.741 1161.12C-208.306 1126.93 -167.434 1106.63 -111.078 1102.16C-54.8713 1097.7 16.0379 1109.09 88.2702 1137.46C160.502 1165.84 220.198 1205.77 258.341 1247.29C296.586 1288.92 312.715 1331.61 299.28 1365.81C285.845 1400.01 244.973 1420.3 188.617 1424.77C132.41 1429.23 61.5008 1417.85 -10.7314 1389.47C-82.9636 1361.09 -142.659 1321.17 -180.802 1279.64C-219.047 1238.01 -235.176 1195.32 -221.741 1161.12Z" stroke="#3949AB" stroke-width="4"/>
</g>
<g filter="url(#filter52_f_4_284)">
<path d="M-221.242 1165.43C-208.254 1132.37 -168.023 1112.98 -112.274 1109.1C-56.6909 1105.23 13.5734 1116.88 85.2877 1145.05C157.002 1173.23 216.405 1212.52 254.494 1253.19C292.696 1293.97 308.972 1335.56 295.984 1368.62C282.996 1401.68 242.765 1421.07 187.016 1424.95C131.433 1428.82 61.169 1417.17 -10.5453 1388.99C-82.2595 1360.82 -141.663 1321.53 -179.751 1280.86C-217.954 1240.08 -234.23 1198.49 -221.242 1165.43Z" stroke="#3949AB" stroke-width="4"/>
</g>
<g filter="url(#filter53_f_4_284)">
<path d="M-220.742 1169.73C-208.201 1137.81 -168.614 1119.33 -113.47 1116.04C-58.5105 1112.76 11.109 1124.68 82.3053 1152.65C153.502 1180.61 212.613 1219.27 250.647 1259.08C288.808 1299.03 305.229 1339.51 292.688 1371.43C280.148 1403.36 240.56 1421.84 185.416 1425.13C130.457 1428.4 60.8373 1416.49 -10.359 1388.52C-81.5553 1360.55 -140.667 1321.89 -178.701 1282.08C-216.862 1242.14 -233.282 1201.65 -220.742 1169.73Z" stroke="#3949AB" stroke-width="4"/>
</g>
<path d="M-220.242 1174.04C-208.149 1143.25 -169.207 1125.67 -114.667 1122.98C-60.3301 1120.29 8.64472 1132.47 79.3232 1160.24C150.002 1188 208.822 1226.03 246.801 1264.98C284.923 1304.08 301.485 1343.47 289.393 1374.25C277.3 1405.03 238.358 1422.61 183.817 1425.31C129.481 1427.99 60.506 1415.81 -10.1725 1388.05C-80.851 1360.28 -139.671 1322.25 -177.651 1283.3C-215.773 1244.2 -232.334 1204.82 -220.242 1174.04Z" stroke="#3949AB" stroke-width="4"/>
<path d="M-219.742 1178.34C-213.923 1163.53 -201.484 1151.96 -183.663 1143.8C-165.83 1135.64 -142.723 1130.96 -115.864 1129.92C-62.1499 1127.82 6.18044 1140.27 76.3411 1167.83C146.502 1195.39 205.03 1232.78 242.956 1270.88C261.921 1289.93 275.665 1309.08 283.175 1327.2C290.68 1345.3 291.916 1362.25 286.097 1377.06C280.278 1391.87 267.839 1403.44 250.018 1411.6C232.186 1419.76 209.079 1424.44 182.219 1425.48C128.505 1427.58 60.1746 1415.13 -9.98599 1387.57C-80.1466 1360.01 -138.675 1322.62 -176.601 1284.52C-195.566 1265.47 -209.31 1246.32 -216.82 1228.2C-224.325 1210.1 -225.561 1193.15 -219.742 1178.34Z" stroke="#3949AB" stroke-width="4"/>
<path d="M-219.242 1182.64C-213.649 1168.41 -201.492 1157.34 -183.956 1149.63C-166.409 1141.91 -143.61 1137.61 -117.061 1136.85C-63.9698 1135.35 3.71621 1148.06 73.3591 1175.42C143.002 1202.78 201.239 1239.54 239.111 1276.78C258.05 1295.4 271.824 1314.07 279.423 1331.67C287.018 1349.26 288.394 1365.64 282.801 1379.87C277.209 1394.11 265.051 1405.17 247.515 1412.89C229.969 1420.61 207.17 1424.91 180.621 1425.66C127.529 1427.17 59.8435 1414.46 -9.79936 1387.1C-79.4422 1359.74 -137.679 1322.98 -175.551 1285.74C-194.49 1267.12 -208.264 1248.45 -215.863 1230.85C-223.458 1213.26 -224.835 1196.88 -219.242 1182.64Z" stroke="#3949AB" stroke-width="4"/>
<path d="M-218.742 1186.95C-213.376 1173.29 -201.502 1162.73 -184.25 1155.45C-166.99 1148.17 -144.499 1144.25 -118.259 1143.79C-65.7906 1142.88 1.25123 1155.85 70.3763 1183.01C139.501 1210.17 197.448 1246.29 235.266 1282.67C254.179 1300.87 267.983 1319.05 275.672 1336.14C283.357 1353.21 284.871 1369.03 279.505 1382.69C274.139 1396.34 262.265 1406.9 245.013 1414.18C227.753 1421.46 205.262 1425.39 179.022 1425.84C126.553 1426.75 59.5116 1413.78 -9.61347 1386.62C-78.7386 1359.47 -136.685 1323.34 -174.503 1286.96C-193.416 1268.76 -207.22 1250.58 -214.909 1233.5C-222.594 1216.42 -224.108 1200.61 -218.742 1186.95Z" stroke="#3949AB" stroke-width="4"/>
<path d="M-214.9 1195.99C-209.939 1183.36 -198.653 1173.68 -182.061 1167.13C-165.464 1160.58 -143.745 1157.24 -118.335 1157.21C-67.5278 1157.15 -2.39422 1170.31 64.9713 1196.77C132.337 1223.23 189.009 1257.93 226.188 1292.56C244.782 1309.88 258.421 1327.11 266.121 1343.2C273.818 1359.29 275.498 1374.07 270.538 1386.69C265.577 1399.32 254.291 1409 237.698 1415.55C221.102 1422.1 199.383 1425.44 173.973 1425.47C123.166 1425.53 58.0319 1412.38 -9.3336 1385.91C-76.6991 1359.45 -133.371 1324.75 -170.55 1290.12C-189.144 1272.81 -202.784 1255.58 -210.483 1239.48C-218.18 1223.39 -219.861 1208.62 -214.9 1195.99Z" stroke="#3949AB" stroke-width="4"/>
<path d="M-211.558 1200.72C-206.775 1188.55 -195.792 1179.24 -179.576 1172.98C-163.358 1166.72 -142.104 1163.6 -117.213 1163.69C-67.4452 1163.89 -3.57562 1176.96 62.5481 1202.94C128.672 1228.91 184.361 1262.81 220.954 1296.54C239.255 1313.41 252.7 1330.17 260.319 1345.79C267.938 1361.42 269.648 1375.71 264.865 1387.89C260.082 1400.06 249.1 1409.37 232.884 1415.63C216.666 1421.89 195.411 1425.02 170.521 1424.92C120.753 1424.72 56.8833 1411.65 -9.2405 1385.67C-75.3643 1359.7 -131.053 1325.8 -167.646 1292.07C-185.947 1275.2 -199.392 1258.44 -207.012 1242.82C-214.63 1227.19 -216.34 1212.9 -211.558 1200.72Z" stroke="#3949AB" stroke-width="4"/>
<path d="M-208.215 1205.46C-203.611 1193.74 -192.932 1184.8 -177.093 1178.83C-161.253 1172.86 -140.462 1169.95 -116.091 1170.17C-67.3624 1170.63 -4.75681 1183.62 60.1253 1209.11C125.007 1234.59 179.714 1267.69 215.72 1300.53C233.729 1316.95 246.978 1333.23 254.519 1348.39C262.059 1363.54 263.798 1377.36 259.193 1389.08C254.589 1400.8 243.91 1409.74 228.071 1415.71C212.231 1421.68 191.441 1424.59 167.069 1424.37C118.341 1423.92 55.7349 1410.93 -9.14713 1385.44C-74.0292 1359.95 -128.735 1326.85 -164.742 1294.01C-182.751 1277.59 -196 1261.31 -203.541 1246.15C-211.081 1231 -212.819 1217.18 -208.215 1205.46Z" stroke="#3949AB" stroke-width="4"/>
</g>
<defs>
<filter id="filter0_f_4_284" x="-441.594" y="411.769" width="1172.09" height="1165.37" filterUnits="userSpaceOnUse" color-interpolation-filters="sRGB">
<feFlood flood-opacity="0" result="BackgroundImageFix"/>
<feBlend mode="normal" in="SourceGraphic" in2="BackgroundImageFix" result="shape"/>
<feGaussianBlur stdDeviation="25" result="effect1_foregroundBlur_4_284"/>
</filter>
<filter id="filter1_f_4_284" x="-350.094" y="709.07" width="910.809" height="770.034" filterUnits="userSpaceOnUse" color-interpolation-filters="sRGB">
<feFlood flood-opacity="0" result="BackgroundImageFix"/>
<feBlend mode="normal" in="SourceGraphic" in2="BackgroundImageFix" result="shape"/>
<feGaussianBlur stdDeviation="6" result="effect1_foregroundBlur_4_284"/>
</filter>
<filter id="filter2_f_4_284" x="-251.608" y="985.145" width="619.895" height="457.006" filterUnits="userSpaceOnUse" color-interpolation-filters="sRGB">
<feFlood flood-opacity="0" result="BackgroundImageFix"/>
<feBlend mode="normal" in="SourceGraphic" in2="BackgroundImageFix" result="shape"/>
<feGaussianBlur stdDeviation="6" result="effect1_foregroundBlur_4_284"/>
</filter>
<filter id="filter4_f_4_284" x="-352.706" y="696.194" width="919.946" height="785.823" filterUnits="userSpaceOnUse" color-interpolation-filters="sRGB">
<feFlood flood-opacity="0" result="BackgroundImageFix"/>
<feBlend mode="normal" in="SourceGraphic" in2="BackgroundImageFix" result="shape"/>
<feGaussianBlur stdDeviation="6" result="effect1_foregroundBlur_4_284"/>
</filter>
<filter id="filter5_f_4_284" x="-355.325" y="683.306" width="929.1" height="801.636" filterUnits="userSpaceOnUse" color-interpolation-filters="sRGB">
<feFlood flood-opacity="0" result="BackgroundImageFix"/>
<feBlend mode="normal" in="SourceGraphic" in2="BackgroundImageFix" result="shape"/>
<feGaussianBlur stdDeviation="6" result="effect1_foregroundBlur_4_284"/>
</filter>
<filter id="filter6_f_4_284" x="-357.953" y="670.404" width="938.269" height="817.474" filterUnits="userSpaceOnUse" color-interpolation-filters="sRGB">
<feFlood flood-opacity="0" result="BackgroundImageFix"/>
<feBlend mode="normal" in="SourceGraphic" in2="BackgroundImageFix" result="shape"/>
<feGaussianBlur stdDeviation="6" result="effect1_foregroundBlur_4_284"/>
</filter>
<filter id="filter7_f_4_284" x="-360.587" y="657.492" width="947.452" height="833.335" filterUnits="userSpaceOnUse" color-interpolation-filters="sRGB">
<feFlood flood-opacity="0" result="BackgroundImageFix"/>
<feBlend mode="normal" in="SourceGraphic" in2="BackgroundImageFix" result="shape"/>
<feGaussianBlur stdDeviation="6" result="effect1_foregroundBlur_4_284"/>
</filter>
<filter id="filter8_f_4_284" x="-371.196" y="605.742" width="984.326" height="896.981" filterUnits="userSpaceOnUse" color-interpolation-filters="sRGB">
<feFlood flood-opacity="0" result="BackgroundImageFix"/>
<feBlend mode="normal" in="SourceGraphic" in2="BackgroundImageFix" result="shape"/>
<feGaussianBlur stdDeviation="6" result="effect1_foregroundBlur_4_284"/>
</filter>
<filter id="filter9_f_4_284" x="-373.864" y="592.782" width="993.577" height="912.938" filterUnits="userSpaceOnUse" color-interpolation-filters="sRGB">
<feFlood flood-opacity="0" result="BackgroundImageFix"/>
<feBlend mode="normal" in="SourceGraphic" in2="BackgroundImageFix" result="shape"/>
<feGaussianBlur stdDeviation="6" result="effect1_foregroundBlur_4_284"/>
</filter>
<filter id="filter10_f_4_284" x="-376.539" y="579.814" width="1002.84" height="928.91" filterUnits="userSpaceOnUse" color-interpolation-filters="sRGB">
<feFlood flood-opacity="0" result="BackgroundImageFix"/>
<feBlend mode="normal" in="SourceGraphic" in2="BackgroundImageFix" result="shape"/>
<feGaussianBlur stdDeviation="6" result="effect1_foregroundBlur_4_284"/>
</filter>
<filter id="filter11_f_4_284" x="-390" y="514.866" width="1049.33" height="1008.99" filterUnits="userSpaceOnUse" color-interpolation-filters="sRGB">
<feFlood flood-opacity="0" result="BackgroundImageFix"/>
<feBlend mode="normal" in="SourceGraphic" in2="BackgroundImageFix" result="shape"/>
<feGaussianBlur stdDeviation="6" result="effect1_foregroundBlur_4_284"/>
</filter>
<filter id="filter12_f_4_284" x="-392.709" y="501.857" width="1058.67" height="1025.04" filterUnits="userSpaceOnUse" color-interpolation-filters="sRGB">
<feFlood flood-opacity="0" result="BackgroundImageFix"/>
<feBlend mode="normal" in="SourceGraphic" in2="BackgroundImageFix" result="shape"/>
<feGaussianBlur stdDeviation="6" result="effect1_foregroundBlur_4_284"/>
</filter>
<filter id="filter13_f_4_284" x="-395.423" y="488.843" width="1068.01" height="1041.11" filterUnits="userSpaceOnUse" color-interpolation-filters="sRGB">
<feFlood flood-opacity="0" result="BackgroundImageFix"/>
<feBlend mode="normal" in="SourceGraphic" in2="BackgroundImageFix" result="shape"/>
<feGaussianBlur stdDeviation="6" result="effect1_foregroundBlur_4_284"/>
</filter>
<filter id="filter14_f_4_284" x="-398.142" y="475.824" width="1077.36" height="1057.18" filterUnits="userSpaceOnUse" color-interpolation-filters="sRGB">
<feFlood flood-opacity="0" result="BackgroundImageFix"/>
<feBlend mode="normal" in="SourceGraphic" in2="BackgroundImageFix" result="shape"/>
<feGaussianBlur stdDeviation="6" result="effect1_foregroundBlur_4_284"/>
</filter>
<filter id="filter15_f_4_284" x="-400.865" y="462.798" width="1086.72" height="1073.27" filterUnits="userSpaceOnUse" color-interpolation-filters="sRGB">
<feFlood flood-opacity="0" result="BackgroundImageFix"/>
<feBlend mode="normal" in="SourceGraphic" in2="BackgroundImageFix" result="shape"/>
<feGaussianBlur stdDeviation="6" result="effect1_foregroundBlur_4_284"/>
</filter>
<filter id="filter16_f_4_284" x="-403.594" y="449.769" width="1096.09" height="1089.37" filterUnits="userSpaceOnUse" color-interpolation-filters="sRGB">
<feFlood flood-opacity="0" result="BackgroundImageFix"/>
<feBlend mode="normal" in="SourceGraphic" in2="BackgroundImageFix" result="shape"/>
<feGaussianBlur stdDeviation="6" result="effect1_foregroundBlur_4_284"/>
</filter>
<filter id="filter17_f_4_284" x="-403.594" y="449.769" width="1096.09" height="1089.37" filterUnits="userSpaceOnUse" color-interpolation-filters="sRGB">
<feFlood flood-opacity="0" result="BackgroundImageFix"/>
<feBlend mode="normal" in="SourceGraphic" in2="BackgroundImageFix" result="shape"/>
<feGaussianBlur stdDeviation="6" result="effect1_foregroundBlur_4_284"/>
</filter>
<filter id="filter18_f_4_284" x="-345.384" y="722.256" width="896.915" height="755.048" filterUnits="userSpaceOnUse" color-interpolation-filters="sRGB">
<feFlood flood-opacity="0" result="BackgroundImageFix"/>
<feBlend mode="normal" in="SourceGraphic" in2="BackgroundImageFix" result="shape"/>
<feGaussianBlur stdDeviation="6" result="effect1_foregroundBlur_4_284"/>
</filter>
<filter id="filter19_f_4_284" x="-340.675" y="735.441" width="883.024" height="740.066" filterUnits="userSpaceOnUse" color-interpolation-filters="sRGB">
<feFlood flood-opacity="0" result="BackgroundImageFix"/>
<feBlend mode="normal" in="SourceGraphic" in2="BackgroundImageFix" result="shape"/>
<feGaussianBlur stdDeviation="6" result="effect1_foregroundBlur_4_284"/>
</filter>
<filter id="filter20_f_4_284" x="-335.968" y="748.622" width="869.136" height="725.09" filterUnits="userSpaceOnUse" color-interpolation-filters="sRGB">
<feFlood flood-opacity="0" result="BackgroundImageFix"/>
<feBlend mode="normal" in="SourceGraphic" in2="BackgroundImageFix" result="shape"/>
<feGaussianBlur stdDeviation="6" result="effect1_foregroundBlur_4_284"/>
</filter>
<filter id="filter21_f_4_284" x="-331.261" y="761.801" width="855.251" height="710.119" filterUnits="userSpaceOnUse" color-interpolation-filters="sRGB">
<feFlood flood-opacity="0" result="BackgroundImageFix"/>
<feBlend mode="normal" in="SourceGraphic" in2="BackgroundImageFix" result="shape"/>
<feGaussianBlur stdDeviation="6" result="effect1_foregroundBlur_4_284"/>
</filter>
<filter id="filter22_f_4_284" x="-326.557" y="774.977" width="841.369" height="695.154" filterUnits="userSpaceOnUse" color-interpolation-filters="sRGB">
<feFlood flood-opacity="0" result="BackgroundImageFix"/>
<feBlend mode="normal" in="SourceGraphic" in2="BackgroundImageFix" result="shape"/>
<feGaussianBlur stdDeviation="6" result="effect1_foregroundBlur_4_284"/>
</filter>
<filter id="filter23_f_4_284" x="-321.855" y="788.15" width="827.491" height="680.196" filterUnits="userSpaceOnUse" color-interpolation-filters="sRGB">
<feFlood flood-opacity="0" result="BackgroundImageFix"/>
<feBlend mode="normal" in="SourceGraphic" in2="BackgroundImageFix" result="shape"/>
<feGaussianBlur stdDeviation="6" result="effect1_foregroundBlur_4_284"/>
</filter>
<filter id="filter24_f_4_284" x="-317.155" y="801.319" width="813.617" height="665.244" filterUnits="userSpaceOnUse" color-interpolation-filters="sRGB">
<feFlood flood-opacity="0" result="BackgroundImageFix"/>
<feBlend mode="normal" in="SourceGraphic" in2="BackgroundImageFix" result="shape"/>
<feGaussianBlur stdDeviation="6" result="effect1_foregroundBlur_4_284"/>
</filter>
<filter id="filter25_f_4_284" x="-312.456" y="814.485" width="799.746" height="650.299" filterUnits="userSpaceOnUse" color-interpolation-filters="sRGB">
<feFlood flood-opacity="0" result="BackgroundImageFix"/>
<feBlend mode="normal" in="SourceGraphic" in2="BackgroundImageFix" result="shape"/>
<feGaussianBlur stdDeviation="6" result="effect1_foregroundBlur_4_284"/>
</filter>
<filter id="filter26_f_4_284" x="-307.759" y="827.647" width="785.879" height="635.362" filterUnits="userSpaceOnUse" color-interpolation-filters="sRGB">
<feFlood flood-opacity="0" result="BackgroundImageFix"/>
<feBlend mode="normal" in="SourceGraphic" in2="BackgroundImageFix" result="shape"/>
<feGaussianBlur stdDeviation="6" result="effect1_foregroundBlur_4_284"/>
</filter>
<filter id="filter27_f_4_284" x="-303.065" y="840.805" width="772.017" height="620.433" filterUnits="userSpaceOnUse" color-interpolation-filters="sRGB">
<feFlood flood-opacity="0" result="BackgroundImageFix"/>
<feBlend mode="normal" in="SourceGraphic" in2="BackgroundImageFix" result="shape"/>
<feGaussianBlur stdDeviation="6" result="effect1_foregroundBlur_4_284"/>
</filter>
<filter id="filter28_f_4_284" x="-298.372" y="853.958" width="758.159" height="605.513" filterUnits="userSpaceOnUse" color-interpolation-filters="sRGB">
<feFlood flood-opacity="0" result="BackgroundImageFix"/>
<feBlend mode="normal" in="SourceGraphic" in2="BackgroundImageFix" result="shape"/>
<feGaussianBlur stdDeviation="6" result="effect1_foregroundBlur_4_284"/>
</filter>
<filter id="filter29_f_4_284" x="-293.683" y="867.106" width="744.305" height="590.602" filterUnits="userSpaceOnUse" color-interpolation-filters="sRGB">
<feFlood flood-opacity="0" result="BackgroundImageFix"/>
<feBlend mode="normal" in="SourceGraphic" in2="BackgroundImageFix" result="shape"/>
<feGaussianBlur stdDeviation="6" result="effect1_foregroundBlur_4_284"/>
</filter>
<filter id="filter30_f_4_284" x="-288.995" y="880.25" width="730.457" height="575.702" filterUnits="userSpaceOnUse" color-interpolation-filters="sRGB">
<feFlood flood-opacity="0" result="BackgroundImageFix"/>
<feBlend mode="normal" in="SourceGraphic" in2="BackgroundImageFix" result="shape"/>
<feGaussianBlur stdDeviation="6" result="effect1_foregroundBlur_4_284"/>
</filter>
<filter id="filter31_f_4_284" x="-284.31" y="893.388" width="716.614" height="560.814" filterUnits="userSpaceOnUse" color-interpolation-filters="sRGB">
<feFlood flood-opacity="0" result="BackgroundImageFix"/>
<feBlend mode="normal" in="SourceGraphic" in2="BackgroundImageFix" result="shape"/>
<feGaussianBlur stdDeviation="6" result="effect1_foregroundBlur_4_284"/>
</filter>
<filter id="filter32_f_4_284" x="-279.628" y="906.52" width="702.777" height="545.937" filterUnits="userSpaceOnUse" color-interpolation-filters="sRGB">
<feFlood flood-opacity="0" result="BackgroundImageFix"/>
<feBlend mode="normal" in="SourceGraphic" in2="BackgroundImageFix" result="shape"/>
<feGaussianBlur stdDeviation="6" result="effect1_foregroundBlur_4_284"/>
</filter>
<filter id="filter33_f_4_284" x="-274.949" y="919.645" width="688.946" height="531.074" filterUnits="userSpaceOnUse" color-interpolation-filters="sRGB">
<feFlood flood-opacity="0" result="BackgroundImageFix"/>
<feBlend mode="normal" in="SourceGraphic" in2="BackgroundImageFix" result="shape"/>
<feGaussianBlur stdDeviation="6" result="effect1_foregroundBlur_4_284"/>
</filter>
<filter id="filter34_f_4_284" x="-270.274" y="932.763" width="675.121" height="516.225" filterUnits="userSpaceOnUse" color-interpolation-filters="sRGB">
<feFlood flood-opacity="0" result="BackgroundImageFix"/>
<feBlend mode="normal" in="SourceGraphic" in2="BackgroundImageFix" result="shape"/>
<feGaussianBlur stdDeviation="6" result="effect1_foregroundBlur_4_284"/>
</filter>
<filter id="filter35_f_4_284" x="-265.602" y="945.872" width="661.303" height="501.393" filterUnits="userSpaceOnUse" color-interpolation-filters="sRGB">
<feFlood flood-opacity="0" result="BackgroundImageFix"/>
<feBlend mode="normal" in="SourceGraphic" in2="BackgroundImageFix" result="shape"/>
<feGaussianBlur stdDeviation="6" result="effect1_foregroundBlur_4_284"/>
</filter>
<filter id="filter36_f_4_284" x="-260.933" y="958.973" width="647.493" height="486.577" filterUnits="userSpaceOnUse" color-interpolation-filters="sRGB">
<feFlood flood-opacity="0" result="BackgroundImageFix"/>
<feBlend mode="normal" in="SourceGraphic" in2="BackgroundImageFix" result="shape"/>
<feGaussianBlur stdDeviation="6" result="effect1_foregroundBlur_4_284"/>
</filter>
<filter id="filter37_f_4_284" x="-256.268" y="972.065" width="633.69" height="471.781" filterUnits="userSpaceOnUse" color-interpolation-filters="sRGB">
<feFlood flood-opacity="0" result="BackgroundImageFix"/>
<feBlend mode="normal" in="SourceGraphic" in2="BackgroundImageFix" result="shape"/>
<feGaussianBlur stdDeviation="6" result="effect1_foregroundBlur_4_284"/>
</filter>
<filter id="filter38_f_4_284" x="-250.78" y="992.526" width="615.444" height="449.363" filterUnits="userSpaceOnUse" color-interpolation-filters="sRGB">
<feFlood flood-opacity="0" result="BackgroundImageFix"/>
<feBlend mode="normal" in="SourceGraphic" in2="BackgroundImageFix" result="shape"/>
<feGaussianBlur stdDeviation="6" result="effect1_foregroundBlur_4_284"/>
</filter>
<filter id="filter39_f_4_284" x="-249.956" y="999.895" width="611.001" height="441.741" filterUnits="userSpaceOnUse" color-interpolation-filters="sRGB">
<feFlood flood-opacity="0" result="BackgroundImageFix"/>
<feBlend mode="normal" in="SourceGraphic" in2="BackgroundImageFix" result="shape"/>
<feGaussianBlur stdDeviation="6" result="effect1_foregroundBlur_4_284"/>
</filter>
<filter id="filter40_f_4_284" x="-249.137" y="1007.25" width="606.567" height="434.141" filterUnits="userSpaceOnUse" color-interpolation-filters="sRGB">
<feFlood flood-opacity="0" result="BackgroundImageFix"/>
<feBlend mode="normal" in="SourceGraphic" in2="BackgroundImageFix" result="shape"/>
<feGaussianBlur stdDeviation="6" result="effect1_foregroundBlur_4_284"/>
</filter>
<filter id="filter41_f_4_284" x="-248.321" y="1014.6" width="602.14" height="426.566" filterUnits="userSpaceOnUse" color-interpolation-filters="sRGB">
<feFlood flood-opacity="0" result="BackgroundImageFix"/>
<feBlend mode="normal" in="SourceGraphic" in2="BackgroundImageFix" result="shape"/>
<feGaussianBlur stdDeviation="6" result="effect1_foregroundBlur_4_284"/>
</filter>
<filter id="filter42_f_4_284" x="-247.51" y="1021.93" width="597.722" height="419.016" filterUnits="userSpaceOnUse" color-interpolation-filters="sRGB">
<feFlood flood-opacity="0" result="BackgroundImageFix"/>
<feBlend mode="normal" in="SourceGraphic" in2="BackgroundImageFix" result="shape"/>
<feGaussianBlur stdDeviation="6" result="effect1_foregroundBlur_4_284"/>
</filter>
<filter id="filter43_f_4_284" x="-246.704" y="1029.25" width="593.312" height="411.492" filterUnits="userSpaceOnUse" color-interpolation-filters="sRGB">
<feFlood flood-opacity="0" result="BackgroundImageFix"/>
<feBlend mode="normal" in="SourceGraphic" in2="BackgroundImageFix" result="shape"/>
<feGaussianBlur stdDeviation="6" result="effect1_foregroundBlur_4_284"/>
</filter>
<filter id="filter44_f_4_284" x="-245.901" y="1036.56" width="588.912" height="403.996" filterUnits="userSpaceOnUse" color-interpolation-filters="sRGB">
<feFlood flood-opacity="0" result="BackgroundImageFix"/>
<feBlend mode="normal" in="SourceGraphic" in2="BackgroundImageFix" result="shape"/>
<feGaussianBlur stdDeviation="6" result="effect1_foregroundBlur_4_284"/>
</filter>
<filter id="filter45_f_4_284" x="-245.103" y="1043.85" width="584.52" height="396.531" filterUnits="userSpaceOnUse" color-interpolation-filters="sRGB">
<feFlood flood-opacity="0" result="BackgroundImageFix"/>
<feBlend mode="normal" in="SourceGraphic" in2="BackgroundImageFix" result="shape"/>
<feGaussianBlur stdDeviation="6" result="effect1_foregroundBlur_4_284"/>
</filter>
<filter id="filter46_f_4_284" x="-244.31" y="1051.13" width="580.138" height="389.098" filterUnits="userSpaceOnUse" color-interpolation-filters="sRGB">
<feFlood flood-opacity="0" result="BackgroundImageFix"/>
<feBlend mode="normal" in="SourceGraphic" in2="BackgroundImageFix" result="shape"/>
<feGaussianBlur stdDeviation="6" result="effect1_foregroundBlur_4_284"/>
</filter>
<filter id="filter47_f_4_284" x="-243.522" y="1058.38" width="575.765" height="381.698" filterUnits="userSpaceOnUse" color-interpolation-filters="sRGB">
<feFlood flood-opacity="0" result="BackgroundImageFix"/>
<feBlend mode="normal" in="SourceGraphic" in2="BackgroundImageFix" result="shape"/>
<feGaussianBlur stdDeviation="6" result="effect1_foregroundBlur_4_284"/>
</filter>
<filter id="filter48_f_4_284" x="-242.738" y="1065.62" width="571.402" height="374.335" filterUnits="userSpaceOnUse" color-interpolation-filters="sRGB">
<feFlood flood-opacity="0" result="BackgroundImageFix"/>
<feBlend mode="normal" in="SourceGraphic" in2="BackgroundImageFix" result="shape"/>
<feGaussianBlur stdDeviation="6" result="effect1_foregroundBlur_4_284"/>
</filter>
<filter id="filter49_f_4_284" x="-241.959" y="1072.84" width="567.049" height="367.009" filterUnits="userSpaceOnUse" color-interpolation-filters="sRGB">
<feFlood flood-opacity="0" result="BackgroundImageFix"/>
<feBlend mode="normal" in="SourceGraphic" in2="BackgroundImageFix" result="shape"/>
<feGaussianBlur stdDeviation="6" result="effect1_foregroundBlur_4_284"/>
</filter>
<filter id="filter50_f_4_284" x="-241.185" y="1080.05" width="562.706" height="359.725" filterUnits="userSpaceOnUse" color-interpolation-filters="sRGB">
<feFlood flood-opacity="0" result="BackgroundImageFix"/>
<feBlend mode="normal" in="SourceGraphic" in2="BackgroundImageFix" result="shape"/>
<feGaussianBlur stdDeviation="6" result="effect1_foregroundBlur_4_284"/>
</filter>
<filter id="filter51_f_4_284" x="-240.417" y="1087.22" width="558.373" height="352.484" filterUnits="userSpaceOnUse" color-interpolation-filters="sRGB">
<feFlood flood-opacity="0" result="BackgroundImageFix"/>
<feBlend mode="normal" in="SourceGraphic" in2="BackgroundImageFix" result="shape"/>
<feGaussianBlur stdDeviation="6" result="effect1_foregroundBlur_4_284"/>
</filter>
<filter id="filter52_f_4_284" x="-239.654" y="1094.38" width="554.051" height="345.29" filterUnits="userSpaceOnUse" color-interpolation-filters="sRGB">
<feFlood flood-opacity="0" result="BackgroundImageFix"/>
<feBlend mode="normal" in="SourceGraphic" in2="BackgroundImageFix" result="shape"/>
<feGaussianBlur stdDeviation="6" result="effect1_foregroundBlur_4_284"/>
</filter>
<filter id="filter53_f_4_284" x="-238.897" y="1101.51" width="549.74" height="338.146" filterUnits="userSpaceOnUse" color-interpolation-filters="sRGB">
<feFlood flood-opacity="0" result="BackgroundImageFix"/>
<feBlend mode="normal" in="SourceGraphic" in2="BackgroundImageFix" result="shape"/>
<feGaussianBlur stdDeviation="6" result="effect1_foregroundBlur_4_284"/>
</filter>
</defs>
</svg>
