<svg width="1053" height="902" viewBox="0 0 1053 902" fill="none" xmlns="http://www.w3.org/2000/svg">
<g filter="url(#filter0_f_2_86)">
<g filter="url(#filter1_f_2_86)">
<path d="M1151.48 391.092C1012.51 530.062 756.254 500.189 579.033 322.967C401.812 145.746 371.938 -110.51 510.908 -249.48C649.878 -388.45 906.134 -358.576 1083.36 -181.355C1260.58 -4.13403 1290.45 252.122 1151.48 391.092Z" stroke="#3949AB" stroke-width="4"/>
</g>
<g filter="url(#filter2_f_2_86)">
<path d="M1140.13 198.072C1102.11 236.092 1043.33 246.554 978.659 232.259C914.019 217.97 843.796 178.982 783.407 118.594C723.018 58.2047 684.03 -12.0184 669.741 -76.6582C655.447 -141.325 665.908 -200.106 703.928 -238.125C741.948 -276.145 800.729 -286.607 865.395 -272.312C930.035 -258.023 1000.26 -219.035 1060.65 -158.647C1121.04 -98.2577 1160.02 -28.0345 1174.31 36.6052C1188.61 101.272 1178.15 160.053 1140.13 198.072Z" stroke="#3949AB" stroke-width="4"/>
</g>
<g filter="url(#filter3_f_2_86)">
<path d="M1166.62 111.024C1156.68 120.961 1142.04 125.542 1123.75 125.031C1105.46 124.521 1083.7 118.912 1059.87 108.698C1012.22 88.2739 956.64 49.6046 904.518 -2.51747C852.396 -54.6395 813.726 -110.215 793.302 -157.871C783.088 -181.704 777.479 -203.459 776.969 -221.754C776.459 -240.043 781.039 -254.682 790.976 -264.619C800.913 -274.556 815.552 -279.137 833.841 -278.626C852.136 -278.116 873.891 -272.507 897.724 -262.293C945.38 -241.869 1000.96 -203.199 1053.08 -151.077C1105.2 -98.9553 1143.87 -43.3795 1164.29 4.27619C1174.51 28.1096 1180.12 49.8643 1180.63 68.1591C1181.14 86.4481 1176.56 101.087 1166.62 111.024Z" stroke="#3949AB" stroke-width="4"/>
</g>
<g filter="url(#filter4_f_2_86)">
<ellipse cx="1026.11" cy="-124.107" rx="165.924" ry="34.7905" transform="rotate(45 1026.11 -124.107)" fill="#234272"/>
<path d="M1142.02 -8.19485C1140.81 -6.98635 1138.91 -6.24089 1136.07 -6.20626C1133.21 -6.1715 1129.6 -6.8612 1125.28 -8.32022C1116.63 -11.2356 1105.55 -17.0724 1092.77 -25.4237C1067.23 -42.108 1035.25 -68.5888 1002.92 -100.92C970.589 -133.252 944.108 -165.23 927.424 -190.767C919.072 -203.55 913.235 -214.628 910.32 -223.276C908.861 -227.604 908.171 -231.214 908.206 -234.067C908.241 -236.909 908.986 -238.81 910.195 -240.018C911.403 -241.227 913.304 -241.972 916.146 -242.007C918.999 -242.042 922.61 -241.352 926.937 -239.893C935.585 -236.978 946.663 -231.141 959.446 -222.79C984.983 -206.105 1016.96 -179.624 1049.29 -147.293C1081.62 -114.962 1108.11 -82.9832 1124.79 -57.446C1133.14 -44.6633 1138.98 -33.585 1141.89 -24.9374C1143.35 -20.6097 1144.04 -16.9989 1144.01 -14.1465C1143.97 -11.3041 1143.23 -9.40335 1142.02 -8.19485Z" stroke="#3949AB" stroke-width="4"/>
</g>
<g filter="url(#filter5_f_2_86)">
<path d="M1150.58 397.761C1008.21 540.132 747.912 511.672 569.12 332.88C390.328 154.088 361.869 -106.208 504.24 -248.579C646.611 -390.95 906.906 -362.49 1085.7 -183.698C1264.49 -4.90563 1292.95 255.39 1150.58 397.761Z" stroke="white" stroke-width="4"/>
</g>
<g filter="url(#filter6_f_2_86)">
<path d="M1149.68 404.428C1003.91 550.2 739.572 523.156 559.208 342.792C378.844 162.428 351.799 -101.906 497.571 -247.678C643.343 -393.45 907.677 -366.405 1088.04 -186.041C1268.41 -5.67739 1295.45 258.656 1149.68 404.428Z" stroke="white" stroke-width="4"/>
</g>
<g filter="url(#filter7_f_2_86)">
<path d="M1148.78 411.097C999.604 560.27 731.232 534.641 549.296 352.705C367.359 170.768 341.73 -97.6039 490.903 -246.776C640.076 -395.949 908.447 -370.32 1090.38 -188.384C1272.32 -6.44724 1297.95 261.925 1148.78 411.097Z" stroke="#2D5775" stroke-width="4"/>
</g>
<g filter="url(#filter8_f_2_86)">
<path d="M1147.88 417.766C995.303 570.338 722.893 546.127 539.383 362.617C355.874 179.107 331.662 -93.3024 484.235 -245.875C636.808 -398.448 909.217 -374.236 1092.73 -190.727C1276.24 -7.21677 1300.45 265.193 1147.88 417.766Z" stroke="white" stroke-width="4"/>
</g>
<g filter="url(#filter9_f_2_86)">
<path d="M1144.27 444.438C978.1 610.609 689.543 592.074 499.734 402.266C309.925 212.457 291.391 -76.1005 457.561 -242.271C623.732 -408.442 912.29 -389.907 1102.1 -200.099C1291.91 -10.2901 1310.44 278.268 1144.27 444.438Z" stroke="#3949AB" stroke-width="4"/>
</g>
<g filter="url(#filter10_f_2_86)">
<path d="M1143.37 451.107C973.8 620.676 681.206 603.563 489.822 412.178C298.437 220.794 281.324 -71.8005 450.893 -241.37C620.462 -410.939 913.057 -393.826 1104.44 -202.441C1295.83 -11.0567 1312.94 281.537 1143.37 451.107Z" stroke="#203A52" stroke-width="4"/>
</g>
<g filter="url(#filter11_f_2_86)">
<path d="M1142.47 457.775C969.501 630.743 672.871 615.052 479.909 422.091C286.948 229.13 271.257 -67.5008 444.225 -240.469C617.193 -413.436 913.823 -397.745 1106.78 -204.784C1299.75 -11.8228 1315.44 284.808 1142.47 457.775Z" stroke="#3949AB" stroke-width="4"/>
</g>
<g filter="url(#filter12_f_2_86)">
<path d="M1137.96 491.117C948.007 681.072 631.199 672.504 430.348 471.652C229.496 270.801 220.928 -46.0074 410.883 -235.963C600.839 -425.919 917.647 -417.35 1118.5 -216.499C1319.35 -15.6474 1327.92 301.161 1137.96 491.117Z" stroke="#05275A" stroke-width="4"/>
</g>
<g filter="url(#filter13_f_2_86)">
<path d="M1137.06 497.785C943.71 691.138 622.866 683.996 420.435 481.565C218.005 279.134 210.863 -41.7093 404.215 -235.062C597.568 -428.414 918.411 -421.272 1120.84 -218.842C1323.27 -16.4107 1330.41 304.433 1137.06 497.785Z" stroke="white" stroke-width="4"/>
</g>
<g filter="url(#filter14_f_2_86)">
<path d="M1136.16 504.453C939.412 701.202 614.534 695.487 410.523 491.477C206.512 287.466 200.798 -37.4122 397.547 -234.161C594.296 -430.91 919.174 -425.196 1123.18 -221.185C1327.2 -17.1745 1332.91 307.704 1136.16 504.453Z" stroke="#3949AB" stroke-width="4"/>
</g>
<g filter="url(#filter15_f_2_86)">
<path d="M1135.26 511.121C935.115 711.267 606.201 706.98 400.611 501.389C195.02 295.799 190.733 -33.1146 390.879 -233.26C591.024 -433.405 919.937 -429.118 1125.53 -223.528C1331.12 -17.9372 1335.41 310.976 1135.26 511.121Z" stroke="#3949AB" stroke-width="4"/>
</g>
<g filter="url(#filter16_f_2_86)">
<path d="M1134.36 517.79C930.817 721.331 597.869 718.473 390.698 511.302C183.527 304.131 180.669 -28.8169 384.21 -232.358C587.752 -435.9 920.7 -433.041 1127.87 -225.87C1335.04 -18.6992 1337.9 314.249 1134.36 517.79Z" stroke="#3949AB" stroke-width="4"/>
</g>
<g filter="url(#filter17_f_2_86)">
<path d="M1133.46 524.458C926.521 731.395 589.538 729.966 380.786 521.214C172.034 312.462 170.605 -24.5205 377.542 -231.458C584.479 -438.395 921.462 -436.966 1130.21 -228.214C1338.97 -19.4619 1340.4 317.521 1133.46 524.458Z" stroke="#1A295B" stroke-width="4"/>
</g>
<g filter="url(#filter18_f_2_86)">
<path d="M1133.46 524.458C926.521 731.395 589.538 729.966 380.786 521.214C172.034 312.462 170.605 -24.5205 377.542 -231.458C584.479 -438.395 921.462 -436.966 1130.21 -228.214C1338.97 -19.4619 1340.4 317.521 1133.46 524.458Z" stroke="#1A295B" stroke-width="4"/>
</g>
<g filter="url(#filter19_f_2_86)">
<path d="M1150.94 381.901C1014.96 517.877 763.308 487.778 588.765 313.235C414.222 138.693 384.123 -112.963 520.099 -248.939C656.076 -384.916 907.731 -354.817 1082.27 -180.274C1256.82 -5.73082 1286.92 245.924 1150.94 381.901Z" stroke="#3949AB" stroke-width="4"/>
</g>
<g filter="url(#filter20_f_2_86)">
<path d="M1150.4 372.709C1017.42 505.692 770.362 475.368 598.497 303.503C426.632 131.638 396.308 -115.416 529.291 -248.399C662.274 -381.382 909.328 -351.058 1081.19 -179.193C1253.06 -7.32784 1283.38 239.726 1150.4 372.709Z" stroke="#3949AB" stroke-width="4"/>
</g>
<g filter="url(#filter21_f_2_86)">
<path d="M1149.86 363.518C1019.87 493.507 777.417 462.958 608.229 293.771C439.042 124.584 408.493 -117.868 538.482 -247.858C668.472 -377.847 910.924 -347.298 1080.11 -178.111C1249.3 -8.92386 1279.85 233.528 1149.86 363.518Z" stroke="#3949AB" stroke-width="4"/>
</g>
<g filter="url(#filter22_f_2_86)">
<path d="M1149.32 354.326C1085.8 417.846 994.65 441.904 898.457 429.247C802.262 416.59 701.137 367.215 617.961 284.039C534.785 200.863 485.41 99.7382 472.753 3.54306C460.096 -92.6495 484.154 -183.797 547.674 -247.317C611.193 -310.837 702.341 -334.895 798.534 -322.238C894.729 -309.581 995.854 -260.206 1079.03 -177.03C1162.21 -93.8536 1211.58 7.27119 1224.24 103.466C1236.89 199.659 1212.84 290.807 1149.32 354.326Z" stroke="#3949AB" stroke-width="4"/>
</g>
<g filter="url(#filter23_f_2_86)">
<path d="M1148.78 345.135C1086.75 407.157 997.508 430.412 903.172 417.659C808.834 404.905 709.528 356.141 627.693 274.307C545.858 192.472 497.095 93.1657 484.341 -1.17205C471.588 -95.5078 494.843 -184.754 556.865 -246.777C618.887 -308.799 708.134 -332.054 802.47 -319.301C896.808 -306.547 996.114 -257.784 1077.95 -175.949C1159.78 -94.1139 1208.55 5.19214 1221.3 99.5299C1234.05 193.866 1210.8 283.112 1148.78 345.135Z" stroke="#3949AB" stroke-width="4"/>
</g>
<g filter="url(#filter24_f_2_86)">
<path d="M1148.24 335.943C1087.71 396.468 1000.37 418.92 907.887 406.07C815.406 393.22 717.919 345.068 637.425 264.575C556.932 184.081 508.779 86.5935 495.93 -5.88696C483.08 -98.366 505.532 -185.711 566.056 -246.236C626.581 -306.761 713.927 -329.213 806.406 -316.363C898.886 -303.513 996.373 -255.361 1076.87 -174.867C1157.36 -94.3736 1205.51 3.11379 1218.36 95.5943C1231.21 188.073 1208.76 275.419 1148.24 335.943Z" stroke="#3949AB" stroke-width="4"/>
</g>
<g filter="url(#filter25_f_2_86)">
<path d="M1147.7 326.752C1088.67 385.779 1003.22 407.428 912.602 394.482C821.979 381.536 726.31 333.995 647.157 254.843C568.005 175.69 520.464 80.0213 507.518 -10.602C494.572 -101.225 516.221 -186.668 575.248 -245.695C634.275 -304.722 719.719 -326.371 810.341 -313.425C900.964 -300.479 996.633 -252.938 1075.79 -173.786C1154.94 -94.633 1202.48 1.03574 1215.43 91.6591C1228.37 182.282 1206.72 267.725 1147.7 326.752Z" stroke="#3949AB" stroke-width="4"/>
</g>
<g filter="url(#filter26_f_2_86)">
<path d="M1147.15 317.56C1089.63 375.089 1006.08 395.936 917.318 382.894C828.552 369.851 734.701 322.922 656.89 245.11C579.078 167.299 532.149 73.4484 519.106 -15.318C506.064 -104.084 526.911 -187.626 584.44 -245.155C641.968 -302.684 725.51 -323.531 814.276 -310.488C903.043 -297.446 996.893 -250.516 1074.7 -172.705C1152.52 -94.8931 1199.45 -1.04276 1212.49 87.7235C1225.53 176.49 1204.68 260.032 1147.15 317.56Z" stroke="#3949AB" stroke-width="4"/>
</g>
<g filter="url(#filter27_f_2_86)">
<path d="M1146.61 308.369C1090.58 364.399 1008.94 384.444 922.034 371.306C835.124 358.167 743.092 311.849 666.622 235.378C590.151 158.908 543.833 66.8756 530.694 -20.0338C517.555 -106.944 537.601 -188.584 593.631 -244.614C649.661 -300.644 731.301 -320.69 818.211 -307.551C905.121 -294.412 997.152 -248.094 1073.62 -171.623C1150.09 -95.1525 1196.41 -3.12057 1209.55 83.7888C1222.69 170.699 1202.64 252.339 1146.61 308.369Z" stroke="#3949AB" stroke-width="4"/>
</g>
<g filter="url(#filter28_f_2_86)">
<path d="M1146.07 299.178C1091.54 353.71 1011.8 372.953 926.75 359.718C841.698 346.483 751.484 300.776 676.354 225.646C601.224 150.516 555.517 60.3027 542.282 -24.7498C529.047 -109.804 548.291 -189.542 602.822 -244.073C657.354 -298.605 737.091 -317.848 822.146 -304.613C907.198 -291.379 997.412 -245.672 1072.54 -170.542C1147.67 -95.4118 1193.38 -5.19804 1206.61 79.8545C1219.85 164.909 1200.61 244.646 1146.07 299.178Z" stroke="#3949AB" stroke-width="4"/>
</g>
<g filter="url(#filter29_f_2_86)">
<path d="M1145.53 289.986C1092.5 343.019 1014.67 361.461 931.466 348.13C848.271 334.799 759.875 289.703 686.086 215.914C612.297 142.125 567.201 53.7291 553.87 -29.4668C540.539 -112.666 558.981 -190.5 612.014 -243.533C665.046 -296.566 742.881 -315.008 826.08 -301.677C909.276 -288.346 997.671 -243.25 1071.46 -169.461C1145.25 -95.6715 1190.35 -7.27591 1203.68 75.9199C1217.01 159.119 1198.57 236.953 1145.53 289.986Z" stroke="#3949AB" stroke-width="4"/>
</g>
<g filter="url(#filter30_f_2_86)">
<path d="M1144.99 280.795C1093.46 332.329 1017.53 349.97 936.183 336.543C854.844 323.116 768.267 278.631 695.818 206.183C623.369 133.734 578.885 47.1564 565.458 -34.1829C552.03 -115.527 569.672 -191.458 621.205 -242.991C672.739 -294.525 748.67 -312.166 830.014 -298.739C911.353 -285.312 997.93 -240.827 1070.38 -168.379C1142.83 -95.93 1187.31 -9.35239 1200.74 71.987C1214.17 153.331 1196.53 229.262 1144.99 280.795Z" stroke="#3949AB" stroke-width="4"/>
</g>
<g filter="url(#filter31_f_2_86)">
<path d="M1144.45 271.604C1094.42 321.637 1020.39 338.478 940.901 324.955C861.418 311.432 776.658 267.558 705.55 196.45C634.442 125.342 590.568 40.5821 577.045 -38.9008C563.522 -118.389 580.363 -192.417 630.396 -242.451C680.43 -292.485 754.458 -309.326 833.947 -295.802C913.43 -282.279 998.19 -238.406 1069.3 -167.298C1140.41 -96.1896 1184.28 -11.4298 1197.8 68.0532C1211.33 147.542 1194.48 221.57 1144.45 271.604Z" stroke="#3949AB" stroke-width="4"/>
</g>
<g filter="url(#filter32_f_2_86)">
<path d="M1143.91 262.412C1095.38 310.945 1023.25 326.987 945.619 313.367C867.992 299.748 785.05 256.485 715.282 186.718C645.515 116.95 602.252 34.0078 588.633 -43.6191C575.013 -121.253 591.054 -193.377 639.588 -241.911C688.122 -290.445 760.246 -306.486 837.88 -292.866C915.507 -279.247 998.449 -235.984 1068.22 -166.217C1137.98 -96.449 1181.25 -13.5069 1194.87 64.1199C1208.49 141.754 1192.44 213.878 1143.91 262.412Z" stroke="#3949AB" stroke-width="4"/>
</g>
<g filter="url(#filter33_f_2_86)">
<path d="M1143.37 253.22C1096.34 300.254 1026.12 315.495 950.337 301.779C874.566 288.065 793.442 245.413 725.014 176.986C656.587 108.558 613.935 27.4335 600.221 -48.3373C586.504 -124.117 601.746 -194.337 648.779 -241.37C695.813 -288.403 766.032 -303.645 841.812 -289.929C917.583 -276.214 998.708 -233.563 1067.14 -165.135C1135.56 -96.7078 1178.21 -15.5833 1191.93 60.1875C1205.65 135.967 1190.4 206.187 1143.37 253.22Z" stroke="#3949AB" stroke-width="4"/>
</g>
<g filter="url(#filter34_f_2_86)">
<path d="M1142.83 244.029C1097.3 289.562 1028.98 304.005 955.056 290.192C881.141 276.382 801.834 234.341 734.746 167.254C667.659 100.166 625.618 20.8592 611.808 -53.0558C597.995 -126.982 612.438 -195.297 657.971 -240.829C703.503 -286.362 771.818 -300.805 845.744 -286.992C919.659 -273.182 998.966 -231.141 1066.05 -164.054C1133.14 -96.9664 1175.18 -17.6592 1188.99 56.2558C1202.8 130.182 1188.36 198.497 1142.83 244.029Z" stroke="#3949AB" stroke-width="4"/>
</g>
<g filter="url(#filter35_f_2_86)">
<path d="M1142.29 234.837C1098.26 278.869 1031.85 292.514 959.775 278.605C887.716 264.699 810.226 223.269 744.479 157.521C678.731 91.7739 637.301 14.2839 623.395 -57.7755C609.486 -129.849 623.131 -196.258 667.162 -240.289C711.194 -284.32 777.603 -297.965 849.676 -284.056C921.735 -270.15 999.225 -228.72 1064.97 -162.973C1130.72 -97.2254 1172.15 -19.7354 1186.06 52.324C1199.96 124.397 1186.32 190.806 1142.29 234.837Z" stroke="#3949AB" stroke-width="4"/>
</g>
<g filter="url(#filter36_f_2_86)">
<path d="M1141.75 225.647C1099.22 268.176 1034.72 281.024 964.495 267.019C894.291 253.017 818.618 212.197 754.211 147.79C689.803 83.3825 648.984 7.70959 634.982 -62.4945C620.977 -132.715 633.824 -197.218 676.354 -239.747C718.883 -282.277 783.386 -295.124 853.606 -281.119C923.811 -267.117 999.483 -226.298 1063.89 -161.89C1128.3 -97.4829 1169.12 -21.81 1183.12 48.3941C1197.12 118.614 1184.28 183.118 1141.75 225.647Z" stroke="#3949AB" stroke-width="4"/>
</g>
<g filter="url(#filter37_f_2_86)">
<path d="M1141.21 216.455C1100.18 257.481 1037.58 269.533 969.216 255.431C900.867 241.334 827.01 201.125 763.943 138.057C700.875 74.9894 660.666 1.13329 646.569 -67.2158C632.467 -135.584 644.518 -198.181 685.545 -239.207C726.572 -280.234 789.168 -292.285 857.537 -278.184C925.886 -264.086 999.742 -223.878 1062.81 -160.81C1125.88 -97.7421 1166.09 -23.8859 1180.18 44.4631C1194.29 112.831 1182.23 175.428 1141.21 216.455Z" stroke="#3949AB" stroke-width="4"/>
</g>
<g filter="url(#filter38_f_2_86)">
<path d="M1140.67 207.263C1101.14 246.787 1040.45 258.042 973.937 243.844C907.442 229.651 835.403 190.053 773.675 128.325C711.947 66.5965 672.348 -5.44307 658.155 -71.9373C643.957 -138.454 655.213 -199.143 694.737 -238.667C734.26 -278.191 794.949 -289.447 861.466 -275.248C927.961 -261.055 1000 -221.457 1061.73 -159.729C1123.46 -98.0006 1163.05 -25.9611 1177.25 40.5331C1191.45 107.05 1180.19 167.739 1140.67 207.263Z" stroke="#3949AB" stroke-width="4"/>
</g>
<g filter="url(#filter39_f_2_86)">
<path d="M1141.39 193.927C1104.22 231.09 1046.38 240.96 982.523 226.373C918.694 211.792 849.169 172.821 789.174 112.826C729.179 52.8313 690.208 -16.6936 675.628 -80.5225C661.04 -144.382 670.91 -202.224 708.073 -239.387C745.236 -276.55 803.078 -286.42 866.938 -271.833C930.767 -257.253 1000.29 -218.281 1060.29 -158.286C1120.28 -98.2915 1159.25 -28.7666 1173.83 35.0623C1188.42 98.9222 1178.55 156.764 1141.39 193.927Z" stroke="#3949AB" stroke-width="4"/>
</g>
<g filter="url(#filter40_f_2_86)">
<path d="M1142.65 189.782C1106.34 226.088 1049.44 235.366 986.387 220.486C923.369 205.615 854.542 166.66 794.941 107.059C735.34 47.458 696.385 -21.3687 681.514 -84.3869C666.634 -147.441 675.912 -204.343 712.218 -240.649C748.524 -276.955 805.426 -286.234 868.48 -271.354C931.499 -256.482 1000.33 -217.527 1059.93 -157.926C1119.53 -98.3252 1158.48 -29.4985 1173.35 33.5197C1188.23 96.5735 1178.96 153.476 1142.65 189.782Z" stroke="#3949AB" stroke-width="4"/>
</g>
<g filter="url(#filter41_f_2_86)">
<path d="M1143.91 185.636C1108.46 221.085 1052.5 229.773 990.252 214.6C928.044 199.437 859.915 160.498 800.709 101.291C741.502 42.0843 702.563 -26.0442 687.4 -88.2519C672.227 -150.5 680.915 -206.462 716.364 -241.911C751.812 -277.36 807.774 -286.048 870.023 -270.875C932.23 -255.712 1000.36 -216.773 1059.57 -157.566C1118.77 -98.3591 1157.71 -30.2306 1172.87 31.9771C1188.05 94.2255 1179.36 150.187 1143.91 185.636Z" stroke="#3949AB" stroke-width="4"/>
</g>
<g filter="url(#filter42_f_2_86)">
<path d="M1145.17 181.491C1110.58 216.082 1055.56 224.181 994.116 208.715C932.719 193.26 865.288 154.337 806.475 95.5243C747.663 36.7114 708.74 -30.7191 693.285 -92.1165C677.819 -153.56 685.918 -208.581 720.509 -243.172C755.099 -277.763 810.121 -285.862 871.564 -270.396C932.962 -254.941 1000.39 -216.018 1059.21 -157.205C1118.02 -98.3922 1156.94 -30.9618 1172.4 30.4356C1187.86 91.8792 1179.76 146.901 1145.17 181.491Z" stroke="#3949AB" stroke-width="4"/>
</g>
<g filter="url(#filter43_f_2_86)">
<path d="M1146.43 177.347C1112.7 211.079 1058.62 218.589 997.982 202.83C937.394 187.083 870.662 148.177 812.243 89.7575C753.824 31.3384 714.917 -35.394 699.171 -95.9812C683.411 -156.621 690.922 -210.701 724.654 -244.433C758.386 -278.166 812.466 -285.676 873.106 -269.916C933.693 -254.17 1000.43 -215.263 1058.84 -156.844C1117.26 -98.4253 1156.17 -31.6928 1171.92 28.8944C1187.68 89.5341 1180.17 143.614 1146.43 177.347Z" stroke="#3949AB" stroke-width="4"/>
</g>
<g filter="url(#filter44_f_2_86)">
<path d="M1147.7 173.201C1114.82 206.075 1061.68 212.998 1001.85 196.944C942.07 180.906 876.036 142.016 818.01 83.9903C759.985 25.965 721.094 -40.0696 705.056 -99.8469C689.003 -159.683 695.926 -212.822 728.799 -245.695C761.673 -278.568 814.811 -285.492 874.647 -269.438C934.425 -253.4 1000.46 -214.509 1058.48 -156.484C1116.51 -98.4587 1155.4 -32.4242 1171.44 27.3531C1187.49 87.1895 1180.57 140.328 1147.7 173.201Z" stroke="#3949AB" stroke-width="4"/>
</g>
<g filter="url(#filter45_f_2_86)">
<path d="M1148.96 169.056C1116.94 201.07 1064.75 207.407 1005.71 191.059C946.745 174.729 881.409 135.854 823.777 78.2227C766.146 20.5912 727.271 -44.7455 710.941 -103.713C694.593 -162.747 700.93 -214.943 732.944 -246.957C764.958 -278.971 817.154 -285.308 876.188 -268.96C935.156 -252.63 1000.49 -213.755 1058.12 -156.124C1115.76 -98.4925 1154.63 -33.1558 1170.96 25.8118C1187.31 84.8458 1180.97 137.042 1148.96 169.056Z" stroke="#3949AB" stroke-width="4"/>
</g>
<g filter="url(#filter46_f_2_86)">
<path d="M1150.22 164.91C1119.06 196.065 1067.81 201.816 1009.58 185.174C951.421 168.552 886.782 129.693 829.544 72.4554C772.307 15.2177 733.447 -49.4212 716.826 -107.579C700.184 -165.812 705.935 -217.065 737.089 -248.219C768.244 -279.373 819.496 -285.124 877.729 -268.482C935.887 -251.861 1000.53 -213.001 1057.76 -155.764C1115 -98.5259 1153.86 -33.887 1170.48 24.2711C1187.12 82.5037 1181.37 133.756 1150.22 164.91Z" stroke="#3949AB" stroke-width="4"/>
</g>
<g filter="url(#filter47_f_2_86)">
<path d="M1151.48 160.765C1121.19 191.058 1070.88 196.226 1013.45 179.289C956.097 162.376 892.156 123.532 835.312 66.6879C778.468 9.84386 739.624 -54.0974 722.711 -111.446C705.773 -168.878 710.941 -219.187 741.235 -249.481C771.528 -279.774 821.837 -284.942 879.269 -268.004C936.618 -251.091 1000.56 -212.248 1057.4 -155.404C1114.25 -98.5595 1153.09 -34.6183 1170 22.7304C1186.94 80.1626 1181.77 130.471 1151.48 160.765Z" stroke="#3949AB" stroke-width="4"/>
</g>
<g filter="url(#filter48_f_2_86)">
<path d="M1152.74 156.621C1123.31 186.053 1073.95 190.639 1017.31 173.405C960.773 156.201 897.529 117.372 841.079 60.9218C784.628 4.47148 745.8 -58.7721 728.595 -115.312C711.362 -171.945 715.947 -221.309 745.38 -250.741C774.812 -280.174 824.176 -284.759 880.809 -267.526C937.349 -250.321 1000.59 -211.492 1057.04 -155.042C1113.49 -98.5917 1152.32 -35.3481 1169.53 21.1916C1186.76 77.8244 1182.17 127.188 1152.74 156.621Z" stroke="#3949AB" stroke-width="4"/>
</g>
<g filter="url(#filter49_f_2_86)">
<path d="M1154 152.475C1125.43 181.046 1077.01 185.05 1021.18 167.521C965.449 150.024 902.903 111.211 846.846 55.1543C790.789 -0.902386 751.976 -63.4485 734.479 -119.179C716.95 -175.014 720.954 -223.432 749.525 -252.003C778.095 -280.574 826.514 -284.578 882.348 -267.049C938.079 -249.552 1000.63 -210.739 1056.68 -154.682C1112.74 -98.6252 1151.55 -36.0792 1169.05 19.6517C1186.58 75.4862 1182.57 123.905 1154 152.475Z" stroke="#3949AB" stroke-width="4"/>
</g>
<g filter="url(#filter50_f_2_86)">
<path d="M1155.26 148.33C1127.56 176.038 1080.08 179.463 1025.05 161.637C970.125 143.848 908.276 105.05 852.613 49.387C796.95 -6.27608 758.152 -68.1247 740.363 -123.047C722.536 -178.084 725.961 -225.556 753.67 -253.265C781.378 -280.973 828.85 -284.398 883.888 -266.572C938.81 -248.783 1000.66 -209.985 1056.32 -154.322C1111.98 -98.6586 1150.78 -36.8099 1168.57 18.1123C1186.4 73.1498 1182.97 120.622 1155.26 148.33Z" stroke="#3949AB" stroke-width="4"/>
</g>
<g filter="url(#filter51_f_2_86)">
<path d="M1156.53 144.185C1129.68 171.03 1083.16 173.877 1028.91 155.753C974.801 137.672 913.65 98.8889 858.38 43.6194C803.111 -11.65 764.328 -72.8013 746.246 -126.915C728.123 -181.157 730.97 -227.681 757.815 -254.527C784.66 -281.372 831.185 -284.219 885.426 -266.095C939.54 -248.014 1000.69 -209.231 1055.96 -153.961C1111.23 -98.692 1150.01 -37.5407 1168.09 16.5731C1186.22 70.8148 1183.37 117.339 1156.53 144.185Z" stroke="#3949AB" stroke-width="4"/>
</g>
<g filter="url(#filter52_f_2_86)">
<path d="M1157.79 140.039C1131.81 166.021 1086.23 168.292 1032.78 149.87C979.477 131.496 919.023 92.728 864.148 37.8521C809.272 -17.0238 770.503 -77.4778 752.13 -130.783C733.708 -184.231 735.979 -229.807 761.96 -255.788C787.942 -281.77 833.518 -284.041 886.965 -265.619C940.271 -247.245 1000.72 -208.477 1055.6 -153.601C1110.48 -98.7253 1149.25 -38.2713 1167.62 15.0344C1186.04 68.4818 1183.77 114.058 1157.79 140.039Z" stroke="#3949AB" stroke-width="4"/>
</g>
<g filter="url(#filter53_f_2_86)">
<path d="M1159.05 135.895C1133.93 161.012 1089.31 162.709 1036.65 143.988C984.154 125.322 924.397 86.5682 869.915 32.0858C815.432 -22.3966 776.678 -82.1534 758.013 -134.651C739.291 -187.306 740.989 -231.932 766.105 -257.049C791.222 -282.166 835.849 -283.863 888.503 -265.142C941.001 -246.476 1000.76 -207.722 1055.24 -153.24C1109.72 -98.7575 1148.48 -39.0006 1167.14 13.4972C1185.86 66.1516 1184.17 110.778 1159.05 135.895Z" stroke="#3949AB" stroke-width="4"/>
</g>
<g filter="url(#filter54_f_2_86)">
<path d="M1160.31 131.75C1136.06 156.001 1092.38 157.127 1040.52 138.105C988.831 119.147 929.771 80.4076 875.682 26.3186C821.593 -27.7703 782.854 -86.83 763.895 -138.52C744.873 -190.383 745.999 -234.059 770.251 -258.311C794.502 -282.562 838.178 -283.688 890.041 -264.666C941.731 -245.707 1000.79 -206.968 1054.88 -152.879C1108.97 -98.7905 1147.71 -39.7307 1166.67 11.9594C1185.69 63.8226 1184.56 107.498 1160.31 131.75Z" stroke="#3949AB" stroke-width="4"/>
</g>
<g filter="url(#filter55_f_2_86)">
<path d="M1161.57 127.604C1138.19 150.989 1095.46 151.546 1044.39 132.222C993.507 112.971 935.145 74.2465 881.449 20.551C827.754 -33.1445 789.029 -91.5073 769.778 -142.39C750.454 -193.464 751.011 -236.188 774.396 -259.573C797.781 -282.958 840.505 -283.514 891.579 -264.191C942.461 -244.94 1000.82 -206.215 1054.52 -152.519C1108.22 -98.824 1146.94 -40.4612 1166.19 10.4215C1185.51 61.4952 1184.96 104.219 1161.57 127.604Z" stroke="#3949AB" stroke-width="4"/>
</g>
<g filter="url(#filter56_f_2_86)">
<path d="M1162.83 123.459C1151.58 134.713 1135.55 140.349 1115.96 140.704C1096.35 141.059 1073.3 136.114 1048.26 126.341C998.184 106.797 940.518 68.0859 887.216 14.7838C833.914 -38.5183 795.203 -96.1841 775.659 -146.26C765.886 -171.3 760.941 -194.352 761.296 -213.96C761.65 -233.554 767.287 -249.581 778.541 -260.834C789.794 -272.088 805.821 -277.725 825.415 -278.079C845.023 -278.434 868.075 -273.489 893.115 -263.716C943.191 -244.172 1000.86 -205.461 1054.16 -152.159C1107.46 -98.8569 1146.17 -41.191 1165.72 8.88457C1175.49 33.9253 1180.43 56.9767 1180.08 76.5848C1179.72 96.1793 1174.09 112.206 1162.83 123.459Z" stroke="#3949AB" stroke-width="4"/>
</g>
<g filter="url(#filter57_f_2_86)">
<path d="M1164.1 119.313C1153.28 130.129 1137.71 135.413 1118.56 135.479C1099.39 135.545 1076.77 130.379 1052.13 120.459C1002.86 100.622 945.892 61.9249 892.983 9.01615C840.075 -43.8925 801.378 -100.862 781.541 -150.13C771.621 -174.768 766.455 -197.387 766.521 -216.557C766.587 -235.715 771.87 -251.28 782.686 -262.096C793.502 -272.912 809.067 -278.196 828.225 -278.262C847.395 -278.328 870.014 -273.162 894.652 -263.242C943.921 -243.404 1000.89 -204.708 1053.8 -151.799C1106.71 -98.8903 1145.4 -41.9212 1165.24 7.34749C1175.16 31.9856 1180.33 54.6045 1180.26 73.7743C1180.2 92.9325 1174.91 108.498 1164.1 119.313Z" stroke="#3949AB" stroke-width="4"/>
</g>
<g filter="url(#filter58_f_2_86)">
<path d="M1165.36 115.169C1154.98 125.546 1139.88 130.478 1121.15 130.256C1102.42 130.033 1080.24 124.646 1056 114.579C1007.54 94.4485 951.266 55.7656 898.751 3.25021C846.235 -49.2652 807.552 -105.538 787.422 -154C777.355 -178.235 771.967 -200.422 771.745 -219.154C771.523 -237.877 776.454 -252.98 786.831 -263.357C797.208 -273.734 812.311 -278.665 831.034 -278.443C849.766 -278.22 871.953 -272.833 896.188 -262.766C944.65 -242.636 1000.92 -203.953 1053.44 -151.437C1105.95 -98.922 1144.64 -42.6496 1164.77 5.81251C1174.83 30.0482 1180.22 52.2348 1180.44 70.9669C1180.67 89.6898 1175.73 104.792 1165.36 115.169Z" stroke="#3949AB" stroke-width="4"/>
</g>
<g filter="url(#filter59_f_2_86)">
<path d="M1165.45 105.346C1155.85 114.94 1141.64 119.302 1123.81 118.676C1105.98 118.05 1084.74 112.432 1061.43 102.307C1014.83 82.0622 960.382 43.9748 909.204 -7.20376C858.025 -58.3824 819.938 -112.833 799.693 -159.432C789.568 -182.738 783.949 -203.982 783.324 -221.814C782.698 -239.641 787.06 -253.854 796.654 -263.448C806.247 -273.041 820.46 -277.403 838.288 -276.778C856.119 -276.152 877.363 -270.533 900.669 -260.408C947.268 -240.164 1001.72 -202.076 1052.9 -150.898C1104.08 -99.719 1142.16 -45.2687 1162.41 1.33111C1172.53 24.6369 1178.15 45.8805 1178.78 63.7121C1179.4 81.5396 1175.04 95.7529 1165.45 105.346Z" stroke="#3949AB" stroke-width="4"/>
</g>
<g filter="url(#filter60_f_2_86)">
<path d="M1164.28 99.6695C1155.03 108.919 1141.24 113.063 1123.87 112.322C1106.5 111.581 1085.77 105.952 1062.99 95.9166C1017.45 75.8513 964.125 38.3458 913.89 -11.8894C863.654 -62.1246 826.149 -115.45 806.084 -160.994C796.048 -183.772 790.419 -204.505 789.678 -221.873C788.937 -239.24 793.082 -253.027 802.331 -262.276C811.58 -271.525 825.367 -275.67 842.734 -274.929C860.102 -274.187 880.835 -268.559 903.613 -258.523C949.157 -238.458 1002.48 -200.952 1052.72 -150.717C1102.95 -100.482 1140.46 -47.1569 1160.52 -1.61291C1170.56 21.1654 1176.19 41.898 1176.93 59.2666C1177.67 76.633 1173.53 90.4204 1164.28 99.6695Z" stroke="#3949AB" stroke-width="4"/>
</g>
<g filter="url(#filter61_f_2_86)">
<path d="M1163.1 93.9925C1154.2 102.897 1140.84 106.824 1123.93 105.968C1107.03 105.112 1086.81 99.4725 1064.56 89.5265C1020.07 69.6405 967.867 32.7168 918.575 -16.575C869.283 -65.8669 832.359 -118.067 812.473 -162.555C802.527 -184.806 796.888 -205.028 796.032 -221.934C795.175 -238.839 799.103 -252.2 808.007 -261.104C816.912 -270.009 830.272 -273.936 847.178 -273.08C864.084 -272.223 884.306 -266.584 906.557 -256.638C951.045 -236.752 1003.24 -199.829 1052.54 -150.537C1101.83 -101.245 1138.75 -49.0451 1158.64 -4.55669C1168.58 17.6942 1174.22 37.916 1175.08 54.8217C1175.94 71.7275 1172.01 85.0882 1163.1 93.9925Z" stroke="#3949AB" stroke-width="4"/>
</g>
<g filter="url(#filter62_f_2_86)">
<path d="M1161.93 88.3156C1153.37 96.8745 1140.44 100.586 1124 99.614C1107.55 98.6424 1087.84 92.9934 1066.12 83.1367C1022.68 63.4298 971.609 27.0879 923.261 -21.2608C874.912 -69.6094 838.57 -120.684 818.863 -164.117C809.007 -185.841 803.358 -205.552 802.386 -221.995C801.414 -238.441 805.126 -251.374 813.685 -259.933C822.244 -268.492 835.177 -272.203 851.622 -271.231C868.065 -270.26 887.777 -264.611 909.5 -254.754C952.933 -235.047 1004.01 -198.705 1052.36 -150.356C1100.71 -102.008 1137.05 -50.933 1156.75 -7.50009C1166.61 14.2235 1172.26 33.9347 1173.23 50.3777C1174.2 66.8234 1170.49 79.7566 1161.93 88.3156Z" stroke="#3949AB" stroke-width="4"/>
</g>
<g filter="url(#filter63_f_2_86)">
<path d="M1160.76 82.6387C1152.55 90.8515 1140.04 94.3472 1124.06 93.2603C1108.08 92.1737 1088.88 86.5146 1067.68 76.7472C1025.3 57.2194 975.352 21.459 927.947 -25.9464C880.541 -73.3519 844.781 -123.302 825.253 -165.68C815.486 -186.876 809.827 -206.077 808.74 -222.057C807.653 -238.043 811.149 -250.548 819.362 -258.761C827.574 -266.974 840.079 -270.47 856.066 -269.383C872.046 -268.296 891.247 -262.637 912.443 -252.87C954.821 -233.342 1004.77 -197.582 1052.18 -150.176C1099.58 -102.771 1135.34 -52.8208 1154.87 -10.443C1164.64 10.7534 1170.3 29.9541 1171.38 45.9346C1172.47 61.9208 1168.97 74.4258 1160.76 82.6387Z" stroke="#3949AB" stroke-width="4"/>
</g>
<g filter="url(#filter64_f_2_86)">
<path d="M1159.59 76.961C1151.72 84.827 1139.65 88.1081 1124.12 86.906C1108.6 85.7046 1089.91 80.0353 1069.24 70.3572C1027.92 51.0084 979.095 15.8295 932.633 -30.6329C886.17 -77.0953 850.991 -125.92 831.643 -167.243C821.964 -187.913 816.295 -206.603 815.094 -222.121C813.892 -237.649 817.173 -249.724 825.039 -257.59C832.905 -265.456 844.98 -268.737 860.508 -267.535C876.026 -266.334 894.717 -260.665 915.386 -250.987C956.709 -231.638 1005.53 -196.459 1052 -149.996C1098.46 -103.534 1133.64 -54.709 1152.99 -13.3862C1162.66 7.28318 1168.33 25.9736 1169.54 41.4918C1170.74 57.0193 1167.46 69.095 1159.59 76.961Z" stroke="#3949AB" stroke-width="4"/>
</g>
<g filter="url(#filter65_f_2_86)">
<path d="M1158.42 71.2843C1150.9 78.8027 1139.26 81.8703 1124.19 80.553C1109.13 79.2369 1090.95 73.5575 1070.81 63.9685C1030.54 44.7987 982.838 10.2011 937.319 -35.3183C891.799 -80.8377 857.202 -128.538 838.032 -168.806C828.443 -188.949 822.764 -207.129 821.447 -222.185C820.13 -237.255 823.198 -248.9 830.716 -256.419C838.234 -263.937 849.88 -267.005 864.949 -265.687C880.006 -264.371 898.186 -258.692 918.328 -249.103C958.596 -229.933 1006.3 -195.335 1051.82 -149.816C1097.34 -104.296 1131.93 -56.596 1151.1 -16.328C1160.69 3.81453 1166.37 21.9948 1167.69 37.051C1169 52.1206 1165.94 63.766 1158.42 71.2843Z" stroke="#3949AB" stroke-width="4"/>
</g>
<g filter="url(#filter66_f_2_86)">
<path d="M1157.25 65.6071C1150.08 72.7769 1138.86 75.6323 1124.25 74.1998C1109.66 72.7691 1091.99 67.0795 1072.37 57.5797C1033.16 38.5887 986.581 4.57225 942.004 -40.0043C897.428 -84.5808 863.411 -131.157 844.42 -170.37C834.92 -189.986 829.231 -207.656 827.8 -222.251C826.368 -236.864 829.223 -248.077 836.393 -255.247C843.563 -262.417 854.776 -265.272 869.389 -263.84C883.983 -262.409 901.654 -256.72 921.27 -247.22C960.483 -228.229 1007.06 -194.212 1051.64 -149.636C1096.21 -105.059 1130.23 -58.4833 1149.22 -19.2697C1158.72 0.346003 1164.41 18.0164 1165.84 32.6109C1167.27 47.2236 1164.42 58.4374 1157.25 65.6071Z" stroke="#3949AB" stroke-width="4"/>
</g>
<g filter="url(#filter67_f_2_86)">
<path d="M1156.08 59.9296C1149.26 66.7497 1138.47 69.3945 1124.32 67.8466C1110.18 66.3014 1093.02 60.6016 1073.93 51.1908C1035.78 32.3786 990.324 -1.05683 946.69 -44.6906C903.056 -88.3243 869.621 -133.776 850.809 -171.935C841.398 -191.024 835.698 -208.185 834.153 -222.318C832.605 -236.475 835.25 -247.256 842.07 -254.076C848.89 -260.896 859.671 -263.541 873.828 -261.993C887.961 -260.448 905.122 -254.748 924.211 -245.337C962.37 -226.525 1007.82 -193.09 1051.46 -149.456C1095.09 -105.822 1128.52 -60.3706 1147.34 -22.2113C1156.75 -3.1222 1162.45 14.0386 1163.99 28.1718C1165.54 42.3286 1162.9 53.1095 1156.08 59.9296Z" stroke="#3949AB" stroke-width="4"/>
</g>
<g filter="url(#filter68_f_2_86)">
<path d="M1154.9 54.2534C1148.43 60.7226 1138.09 63.1585 1124.39 61.4952C1110.71 59.8356 1094.06 54.1255 1075.5 44.8037C1038.39 26.17 994.067 -6.68451 951.376 -49.3756C908.685 -92.0666 875.83 -136.394 857.197 -173.5C847.875 -192.062 842.165 -208.714 840.505 -222.386C838.842 -236.088 841.278 -246.435 847.747 -252.904C854.216 -259.373 864.563 -261.809 878.265 -260.146C891.937 -258.486 908.589 -252.776 927.151 -243.454C964.257 -224.821 1008.58 -191.966 1051.28 -149.275C1093.97 -106.584 1126.82 -62.2563 1145.45 -25.151C1154.78 -6.58836 1160.49 10.0631 1162.15 23.7353C1163.81 37.4377 1161.37 47.7841 1154.9 54.2534Z" stroke="#3949AB" stroke-width="4"/>
</g>
<g filter="url(#filter69_f_2_86)">
<path d="M1153.73 48.5757C1147.62 54.6928 1137.71 56.9218 1124.46 55.1428C1111.24 53.3689 1095.1 47.6486 1077.07 38.4156C1041.01 19.9603 997.81 -12.3135 956.062 -54.062C914.313 -95.8105 882.039 -139.014 863.584 -175.066C854.351 -193.102 848.631 -209.245 846.857 -222.456C845.078 -235.706 847.307 -245.616 853.424 -251.733C859.541 -257.85 869.451 -260.079 882.701 -258.3C895.913 -256.526 912.055 -250.806 930.091 -241.573C966.143 -223.118 1009.35 -190.844 1051.1 -149.095C1092.84 -107.347 1125.12 -64.1432 1143.57 -28.0915C1152.81 -10.0552 1158.53 6.08719 1160.3 19.2989C1162.08 32.5484 1159.85 42.4586 1153.73 48.5757Z" stroke="#3949AB" stroke-width="4"/>
</g>
<g filter="url(#filter70_f_2_86)">
<path d="M1152.56 42.899C1146.8 48.6625 1137.33 50.6869 1124.53 48.792C1111.78 46.9039 1096.14 41.1731 1078.63 32.0289C1043.63 13.752 1001.55 -17.9414 960.748 -58.7474C919.942 -99.5535 888.248 -141.633 869.971 -176.632C860.827 -194.142 855.096 -209.776 853.208 -222.527C851.313 -235.326 853.338 -244.798 859.101 -250.561C864.865 -256.325 874.337 -258.349 887.135 -256.454C899.887 -254.566 915.521 -248.835 933.031 -239.691C968.029 -221.414 1010.11 -189.721 1050.92 -148.915C1091.72 -108.109 1123.41 -66.0287 1141.69 -31.0304C1150.84 -13.5202 1156.57 2.11347 1158.45 14.8652C1160.35 27.6636 1158.32 37.1356 1152.56 42.899Z" stroke="#3949AB" stroke-width="4"/>
</g>
<g filter="url(#filter71_f_2_86)">
<path d="M1151.39 37.2218C1145.98 42.6299 1136.95 44.4526 1124.6 42.4413C1112.31 40.4392 1097.18 34.6978 1080.2 25.6422C1046.25 7.54344 1005.3 -23.5696 965.433 -63.4334C925.57 -103.297 894.457 -144.254 876.358 -178.199C867.302 -195.183 861.561 -210.308 859.559 -222.601C857.547 -234.95 859.37 -243.982 864.778 -249.39C870.186 -254.798 879.218 -256.621 891.567 -254.609C903.86 -252.607 918.985 -246.866 935.969 -237.81C969.914 -219.711 1010.87 -188.598 1050.73 -148.735C1090.6 -108.871 1121.71 -67.9144 1139.81 -33.9691C1148.87 -16.9849 1154.61 -1.85954 1156.61 10.4327C1158.62 22.7822 1156.8 31.8138 1151.39 37.2218Z" stroke="#3949AB" stroke-width="4"/>
</g>
<g filter="url(#filter72_f_2_86)">
<path d="M1150.22 31.5443C1145.17 36.595 1136.58 38.2195 1124.68 36.091C1112.84 33.9749 1098.23 28.2228 1081.77 19.2558C1048.87 1.3349 1009.04 -29.1981 970.119 -68.1197C931.198 -107.041 900.665 -146.874 882.744 -179.767C873.777 -196.226 868.025 -210.843 865.909 -222.676C863.78 -234.58 865.405 -243.168 870.455 -248.219C875.506 -253.27 884.094 -254.894 895.998 -252.766C907.831 -250.65 922.449 -244.897 938.907 -235.93C971.8 -218.009 1011.63 -187.477 1050.55 -148.555C1089.48 -109.633 1120.01 -69.8001 1137.93 -36.9073C1146.9 -20.449 1152.65 -5.83157 1154.77 6.00186C1156.89 17.9051 1155.27 26.4935 1150.22 31.5443Z" stroke="#3949AB" stroke-width="4"/>
</g>
<g filter="url(#filter73_f_2_86)">
<path d="M1149.05 25.868C1144.36 30.5592 1136.21 31.9894 1124.75 29.7428C1113.38 27.5129 1099.27 21.7498 1083.34 12.8712C1051.49 -4.872 1012.78 -34.8252 974.805 -72.8048C936.825 -110.784 906.872 -149.495 889.129 -181.335C880.25 -197.268 874.487 -211.378 872.257 -222.753C870.011 -234.213 871.441 -242.355 876.132 -247.047C880.823 -251.738 888.966 -253.168 900.426 -250.922C911.801 -248.692 925.911 -242.928 941.844 -234.05C973.684 -216.307 1012.39 -186.354 1050.37 -148.374C1088.35 -110.394 1118.31 -71.6842 1136.05 -39.8436C1144.93 -23.9109 1150.69 -9.8009 1152.92 1.57437C1155.17 13.0345 1153.74 21.1767 1149.05 25.868Z" stroke="#3949AB" stroke-width="4"/>
</g>
<g filter="url(#filter74_f_2_86)">
<path d="M1147.88 20.1906C1143.55 24.5197 1135.85 25.7606 1124.83 23.3947C1113.92 21.0509 1100.31 15.2765 1084.9 6.48624C1054.12 -11.0796 1016.53 -40.4532 979.491 -77.491C942.453 -114.529 913.08 -152.116 895.514 -182.905C886.724 -198.312 880.949 -211.915 878.605 -222.833C876.239 -233.854 877.48 -241.546 881.809 -245.876C886.139 -250.205 893.831 -251.446 904.852 -249.08C915.77 -246.736 929.373 -240.961 944.78 -232.171C975.569 -214.605 1013.16 -185.232 1050.19 -148.194C1087.23 -111.156 1116.61 -73.5689 1134.17 -42.7801C1142.96 -27.3729 1148.74 -13.7698 1151.08 -2.85184C1153.45 8.16894 1152.2 15.8614 1147.88 20.1906Z" stroke="#3949AB" stroke-width="4"/>
</g>
<g filter="url(#filter75_f_2_86)">
<path d="M1146.7 14.513C1142.74 18.4772 1135.5 19.5346 1124.92 17.0476C1114.45 14.5899 1101.36 8.80398 1086.48 0.101861C1056.74 -17.2868 1020.27 -46.0812 984.177 -82.1773C948.081 -118.273 919.286 -154.738 901.898 -184.476C893.196 -199.358 887.41 -212.454 884.952 -222.916C882.465 -233.502 883.522 -240.74 887.487 -244.705C891.451 -248.669 898.689 -249.726 909.275 -247.239C919.737 -244.781 932.833 -238.996 947.715 -230.293C977.453 -212.905 1013.92 -184.11 1050.01 -148.014C1086.11 -111.918 1114.9 -75.4533 1132.29 -45.7159C1141 -30.8339 1146.78 -17.7372 1149.24 -7.27564C1151.73 3.31037 1150.67 10.5489 1146.7 14.513Z" stroke="#3949AB" stroke-width="4"/>
</g>
<g filter="url(#filter76_f_2_86)">
<path d="M1145.53 8.83669C1141.94 12.4324 1135.16 13.3138 1125 10.7033C1114.99 8.13154 1102.4 2.33373 1088.05 -6.28042C1059.36 -23.4924 1024.02 -51.7078 988.863 -86.8624C953.708 -122.017 925.493 -157.36 908.281 -186.046C899.667 -200.403 893.869 -212.994 891.297 -223C888.686 -233.157 889.568 -239.937 893.164 -243.532C896.759 -247.128 903.539 -248.01 913.696 -245.399C923.702 -242.827 936.293 -237.029 950.65 -228.415C979.336 -211.203 1014.68 -182.988 1049.83 -147.833C1084.99 -112.679 1113.2 -77.336 1130.42 -48.6494C1139.03 -34.2925 1144.83 -21.7015 1147.4 -11.6954C1150.01 -1.53861 1149.13 5.24095 1145.53 8.83669Z" stroke="#3949AB" stroke-width="4"/>
</g>
<g filter="url(#filter77_f_2_86)">
<path d="M1144.36 3.15902C1141.14 6.38239 1134.82 7.09667 1125.09 4.35941C1115.54 1.67344 1103.45 -4.13674 1089.62 -12.6631C1061.98 -29.6987 1027.76 -57.3355 993.548 -91.5488C959.335 -125.762 931.698 -159.983 914.662 -187.619C906.136 -201.451 900.326 -213.537 897.64 -223.089C894.903 -232.824 895.617 -239.138 898.84 -242.362C902.064 -245.585 908.378 -246.299 918.113 -243.562C927.665 -240.876 939.751 -235.066 953.583 -226.539C981.219 -209.504 1015.44 -181.867 1049.65 -147.654C1083.87 -113.44 1111.5 -79.2195 1128.54 -51.5832C1137.07 -37.7513 1142.88 -25.6653 1145.56 -16.1134C1148.3 -6.37903 1147.58 -0.0643509 1144.36 3.15902Z" stroke="#3949AB" stroke-width="4"/>
</g>
<g filter="url(#filter78_f_2_86)">
<path d="M1143.19 -2.51706C1141.78 -1.10825 1139.65 -0.242388 1136.61 -0.105816C1133.56 0.0314008 1129.73 -0.579962 1125.18 -1.98079C1116.08 -4.78126 1104.5 -10.6044 1091.19 -19.0431C1064.61 -35.9028 1031.51 -62.9614 998.234 -96.2337C964.962 -129.506 937.903 -162.605 921.044 -189.192C912.605 -202.499 906.782 -214.081 903.981 -223.18C902.581 -227.731 901.969 -231.557 902.106 -234.612C902.243 -237.652 903.109 -239.78 904.518 -241.189C905.926 -242.598 908.055 -243.464 911.095 -243.6C914.149 -243.738 917.975 -243.126 922.527 -241.725C931.626 -238.925 943.208 -233.102 956.515 -224.663C983.101 -207.803 1016.2 -180.745 1049.47 -147.473C1082.75 -114.2 1109.8 -81.1008 1126.66 -54.5144C1135.1 -41.2071 1140.93 -29.6254 1143.73 -20.5264C1145.13 -15.9749 1145.74 -12.1487 1145.6 -9.09403C1145.46 -6.05441 1144.6 -3.92586 1143.19 -2.51706Z" stroke="#3949AB" stroke-width="4"/>
</g>
</g>
<defs>
<filter id="filter0_f_2_86" x="171.276" y="-437.724" width="1168.45" height="1168.45" filterUnits="userSpaceOnUse" color-interpolation-filters="sRGB">
<feFlood flood-opacity="0" result="BackgroundImageFix"/>
<feBlend mode="normal" in="SourceGraphic" in2="BackgroundImageFix" result="shape"/>
<feGaussianBlur stdDeviation="25" result="effect1_foregroundBlur_2_86"/>
</filter>
<filter id="filter1_f_2_86" x="409.553" y="-350.835" width="843.281" height="843.281" filterUnits="userSpaceOnUse" color-interpolation-filters="sRGB">
<feFlood flood-opacity="0" result="BackgroundImageFix"/>
<feBlend mode="normal" in="SourceGraphic" in2="BackgroundImageFix" result="shape"/>
<feGaussianBlur stdDeviation="6" result="effect1_foregroundBlur_2_86"/>
</filter>
<filter id="filter2_f_2_86" x="649.619" y="-292.435" width="544.817" height="544.817" filterUnits="userSpaceOnUse" color-interpolation-filters="sRGB">
<feFlood flood-opacity="0" result="BackgroundImageFix"/>
<feBlend mode="normal" in="SourceGraphic" in2="BackgroundImageFix" result="shape"/>
<feGaussianBlur stdDeviation="6" result="effect1_foregroundBlur_2_86"/>
</filter>
<filter id="filter3_f_2_86" x="762.931" y="-292.664" width="431.734" height="431.734" filterUnits="userSpaceOnUse" color-interpolation-filters="sRGB">
<feFlood flood-opacity="0" result="BackgroundImageFix"/>
<feBlend mode="normal" in="SourceGraphic" in2="BackgroundImageFix" result="shape"/>
<feGaussianBlur stdDeviation="6" result="effect1_foregroundBlur_2_86"/>
</filter>
<filter id="filter4_f_2_86" x="894.205" y="-256.008" width="263.803" height="263.803" filterUnits="userSpaceOnUse" color-interpolation-filters="sRGB">
<feFlood flood-opacity="0" result="BackgroundImageFix"/>
<feBlend mode="normal" in="SourceGraphic" in2="BackgroundImageFix" result="shape"/>
<feGaussianBlur stdDeviation="6" result="effect1_foregroundBlur_2_86"/>
</filter>
<filter id="filter5_f_2_86" x="399.701" y="-353.117" width="855.416" height="855.416" filterUnits="userSpaceOnUse" color-interpolation-filters="sRGB">
<feFlood flood-opacity="0" result="BackgroundImageFix"/>
<feBlend mode="normal" in="SourceGraphic" in2="BackgroundImageFix" result="shape"/>
<feGaussianBlur stdDeviation="6" result="effect1_foregroundBlur_2_86"/>
</filter>
<filter id="filter6_f_2_86" x="389.828" y="-355.422" width="867.593" height="867.593" filterUnits="userSpaceOnUse" color-interpolation-filters="sRGB">
<feFlood flood-opacity="0" result="BackgroundImageFix"/>
<feBlend mode="normal" in="SourceGraphic" in2="BackgroundImageFix" result="shape"/>
<feGaussianBlur stdDeviation="6" result="effect1_foregroundBlur_2_86"/>
</filter>
<filter id="filter7_f_2_86" x="379.934" y="-357.746" width="879.812" height="879.812" filterUnits="userSpaceOnUse" color-interpolation-filters="sRGB">
<feFlood flood-opacity="0" result="BackgroundImageFix"/>
<feBlend mode="normal" in="SourceGraphic" in2="BackgroundImageFix" result="shape"/>
<feGaussianBlur stdDeviation="6" result="effect1_foregroundBlur_2_86"/>
</filter>
<filter id="filter8_f_2_86" x="370.02" y="-360.09" width="892.07" height="892.07" filterUnits="userSpaceOnUse" color-interpolation-filters="sRGB">
<feFlood flood-opacity="0" result="BackgroundImageFix"/>
<feBlend mode="normal" in="SourceGraphic" in2="BackgroundImageFix" result="shape"/>
<feGaussianBlur stdDeviation="6" result="effect1_foregroundBlur_2_86"/>
</filter>
<filter id="filter9_f_2_86" x="330.183" y="-369.649" width="941.466" height="941.466" filterUnits="userSpaceOnUse" color-interpolation-filters="sRGB">
<feFlood flood-opacity="0" result="BackgroundImageFix"/>
<feBlend mode="normal" in="SourceGraphic" in2="BackgroundImageFix" result="shape"/>
<feGaussianBlur stdDeviation="6" result="effect1_foregroundBlur_2_86"/>
</filter>
<filter id="filter10_f_2_86" x="320.182" y="-372.081" width="953.898" height="953.898" filterUnits="userSpaceOnUse" color-interpolation-filters="sRGB">
<feFlood flood-opacity="0" result="BackgroundImageFix"/>
<feBlend mode="normal" in="SourceGraphic" in2="BackgroundImageFix" result="shape"/>
<feGaussianBlur stdDeviation="6" result="effect1_foregroundBlur_2_86"/>
</filter>
<filter id="filter11_f_2_86" x="310.166" y="-374.527" width="966.361" height="966.361" filterUnits="userSpaceOnUse" color-interpolation-filters="sRGB">
<feFlood flood-opacity="0" result="BackgroundImageFix"/>
<feBlend mode="normal" in="SourceGraphic" in2="BackgroundImageFix" result="shape"/>
<feGaussianBlur stdDeviation="6" result="effect1_foregroundBlur_2_86"/>
</filter>
<filter id="filter12_f_2_86" x="259.874" y="-386.973" width="1029.1" height="1029.1" filterUnits="userSpaceOnUse" color-interpolation-filters="sRGB">
<feFlood flood-opacity="0" result="BackgroundImageFix"/>
<feBlend mode="normal" in="SourceGraphic" in2="BackgroundImageFix" result="shape"/>
<feGaussianBlur stdDeviation="6" result="effect1_foregroundBlur_2_86"/>
</filter>
<filter id="filter13_f_2_86" x="249.777" y="-389.5" width="1041.72" height="1041.72" filterUnits="userSpaceOnUse" color-interpolation-filters="sRGB">
<feFlood flood-opacity="0" result="BackgroundImageFix"/>
<feBlend mode="normal" in="SourceGraphic" in2="BackgroundImageFix" result="shape"/>
<feGaussianBlur stdDeviation="6" result="effect1_foregroundBlur_2_86"/>
</filter>
<filter id="filter14_f_2_86" x="239.668" y="-392.04" width="1054.37" height="1054.37" filterUnits="userSpaceOnUse" color-interpolation-filters="sRGB">
<feFlood flood-opacity="0" result="BackgroundImageFix"/>
<feBlend mode="normal" in="SourceGraphic" in2="BackgroundImageFix" result="shape"/>
<feGaussianBlur stdDeviation="6" result="effect1_foregroundBlur_2_86"/>
</filter>
<filter id="filter15_f_2_86" x="229.548" y="-394.59" width="1067.04" height="1067.04" filterUnits="userSpaceOnUse" color-interpolation-filters="sRGB">
<feFlood flood-opacity="0" result="BackgroundImageFix"/>
<feBlend mode="normal" in="SourceGraphic" in2="BackgroundImageFix" result="shape"/>
<feGaussianBlur stdDeviation="6" result="effect1_foregroundBlur_2_86"/>
</filter>
<filter id="filter16_f_2_86" x="219.417" y="-397.151" width="1079.73" height="1079.73" filterUnits="userSpaceOnUse" color-interpolation-filters="sRGB">
<feFlood flood-opacity="0" result="BackgroundImageFix"/>
<feBlend mode="normal" in="SourceGraphic" in2="BackgroundImageFix" result="shape"/>
<feGaussianBlur stdDeviation="6" result="effect1_foregroundBlur_2_86"/>
</filter>
<filter id="filter17_f_2_86" x="209.276" y="-399.724" width="1092.45" height="1092.45" filterUnits="userSpaceOnUse" color-interpolation-filters="sRGB">
<feFlood flood-opacity="0" result="BackgroundImageFix"/>
<feBlend mode="normal" in="SourceGraphic" in2="BackgroundImageFix" result="shape"/>
<feGaussianBlur stdDeviation="6" result="effect1_foregroundBlur_2_86"/>
</filter>
<filter id="filter18_f_2_86" x="209.276" y="-399.724" width="1092.45" height="1092.45" filterUnits="userSpaceOnUse" color-interpolation-filters="sRGB">
<feFlood flood-opacity="0" result="BackgroundImageFix"/>
<feBlend mode="normal" in="SourceGraphic" in2="BackgroundImageFix" result="shape"/>
<feGaussianBlur stdDeviation="6" result="effect1_foregroundBlur_2_86"/>
</filter>
<filter id="filter19_f_2_86" x="421.045" y="-347.994" width="828.949" height="828.949" filterUnits="userSpaceOnUse" color-interpolation-filters="sRGB">
<feFlood flood-opacity="0" result="BackgroundImageFix"/>
<feBlend mode="normal" in="SourceGraphic" in2="BackgroundImageFix" result="shape"/>
<feGaussianBlur stdDeviation="6" result="effect1_foregroundBlur_2_86"/>
</filter>
<filter id="filter20_f_2_86" x="432.532" y="-345.157" width="814.625" height="814.625" filterUnits="userSpaceOnUse" color-interpolation-filters="sRGB">
<feFlood flood-opacity="0" result="BackgroundImageFix"/>
<feBlend mode="normal" in="SourceGraphic" in2="BackgroundImageFix" result="shape"/>
<feGaussianBlur stdDeviation="6" result="effect1_foregroundBlur_2_86"/>
</filter>
<filter id="filter21_f_2_86" x="444.016" y="-342.324" width="800.309" height="800.309" filterUnits="userSpaceOnUse" color-interpolation-filters="sRGB">
<feFlood flood-opacity="0" result="BackgroundImageFix"/>
<feBlend mode="normal" in="SourceGraphic" in2="BackgroundImageFix" result="shape"/>
<feGaussianBlur stdDeviation="6" result="effect1_foregroundBlur_2_86"/>
</filter>
<filter id="filter22_f_2_86" x="455.495" y="-339.496" width="786.001" height="786.001" filterUnits="userSpaceOnUse" color-interpolation-filters="sRGB">
<feFlood flood-opacity="0" result="BackgroundImageFix"/>
<feBlend mode="normal" in="SourceGraphic" in2="BackgroundImageFix" result="shape"/>
<feGaussianBlur stdDeviation="6" result="effect1_foregroundBlur_2_86"/>
</filter>
<filter id="filter23_f_2_86" x="466.969" y="-336.673" width="771.703" height="771.703" filterUnits="userSpaceOnUse" color-interpolation-filters="sRGB">
<feFlood flood-opacity="0" result="BackgroundImageFix"/>
<feBlend mode="normal" in="SourceGraphic" in2="BackgroundImageFix" result="shape"/>
<feGaussianBlur stdDeviation="6" result="effect1_foregroundBlur_2_86"/>
</filter>
<filter id="filter24_f_2_86" x="478.439" y="-333.854" width="757.415" height="757.415" filterUnits="userSpaceOnUse" color-interpolation-filters="sRGB">
<feFlood flood-opacity="0" result="BackgroundImageFix"/>
<feBlend mode="normal" in="SourceGraphic" in2="BackgroundImageFix" result="shape"/>
<feGaussianBlur stdDeviation="6" result="effect1_foregroundBlur_2_86"/>
</filter>
<filter id="filter25_f_2_86" x="489.903" y="-331.04" width="743.137" height="743.137" filterUnits="userSpaceOnUse" color-interpolation-filters="sRGB">
<feFlood flood-opacity="0" result="BackgroundImageFix"/>
<feBlend mode="normal" in="SourceGraphic" in2="BackgroundImageFix" result="shape"/>
<feGaussianBlur stdDeviation="6" result="effect1_foregroundBlur_2_86"/>
</filter>
<filter id="filter26_f_2_86" x="501.362" y="-328.232" width="728.87" height="728.87" filterUnits="userSpaceOnUse" color-interpolation-filters="sRGB">
<feFlood flood-opacity="0" result="BackgroundImageFix"/>
<feBlend mode="normal" in="SourceGraphic" in2="BackgroundImageFix" result="shape"/>
<feGaussianBlur stdDeviation="6" result="effect1_foregroundBlur_2_86"/>
</filter>
<filter id="filter27_f_2_86" x="512.815" y="-325.43" width="714.615" height="714.615" filterUnits="userSpaceOnUse" color-interpolation-filters="sRGB">
<feFlood flood-opacity="0" result="BackgroundImageFix"/>
<feBlend mode="normal" in="SourceGraphic" in2="BackgroundImageFix" result="shape"/>
<feGaussianBlur stdDeviation="6" result="effect1_foregroundBlur_2_86"/>
</filter>
<filter id="filter28_f_2_86" x="524.262" y="-322.634" width="700.373" height="700.373" filterUnits="userSpaceOnUse" color-interpolation-filters="sRGB">
<feFlood flood-opacity="0" result="BackgroundImageFix"/>
<feBlend mode="normal" in="SourceGraphic" in2="BackgroundImageFix" result="shape"/>
<feGaussianBlur stdDeviation="6" result="effect1_foregroundBlur_2_86"/>
</filter>
<filter id="filter29_f_2_86" x="535.702" y="-319.845" width="686.143" height="686.143" filterUnits="userSpaceOnUse" color-interpolation-filters="sRGB">
<feFlood flood-opacity="0" result="BackgroundImageFix"/>
<feBlend mode="normal" in="SourceGraphic" in2="BackgroundImageFix" result="shape"/>
<feGaussianBlur stdDeviation="6" result="effect1_foregroundBlur_2_86"/>
</filter>
<filter id="filter30_f_2_86" x="547.135" y="-317.062" width="671.928" height="671.928" filterUnits="userSpaceOnUse" color-interpolation-filters="sRGB">
<feFlood flood-opacity="0" result="BackgroundImageFix"/>
<feBlend mode="normal" in="SourceGraphic" in2="BackgroundImageFix" result="shape"/>
<feGaussianBlur stdDeviation="6" result="effect1_foregroundBlur_2_86"/>
</filter>
<filter id="filter31_f_2_86" x="558.56" y="-314.288" width="657.728" height="657.728" filterUnits="userSpaceOnUse" color-interpolation-filters="sRGB">
<feFlood flood-opacity="0" result="BackgroundImageFix"/>
<feBlend mode="normal" in="SourceGraphic" in2="BackgroundImageFix" result="shape"/>
<feGaussianBlur stdDeviation="6" result="effect1_foregroundBlur_2_86"/>
</filter>
<filter id="filter32_f_2_86" x="569.977" y="-311.521" width="643.544" height="643.544" filterUnits="userSpaceOnUse" color-interpolation-filters="sRGB">
<feFlood flood-opacity="0" result="BackgroundImageFix"/>
<feBlend mode="normal" in="SourceGraphic" in2="BackgroundImageFix" result="shape"/>
<feGaussianBlur stdDeviation="6" result="effect1_foregroundBlur_2_86"/>
</filter>
<filter id="filter33_f_2_86" x="581.386" y="-308.763" width="629.377" height="629.377" filterUnits="userSpaceOnUse" color-interpolation-filters="sRGB">
<feFlood flood-opacity="0" result="BackgroundImageFix"/>
<feBlend mode="normal" in="SourceGraphic" in2="BackgroundImageFix" result="shape"/>
<feGaussianBlur stdDeviation="6" result="effect1_foregroundBlur_2_86"/>
</filter>
<filter id="filter34_f_2_86" x="592.786" y="-306.014" width="615.229" height="615.229" filterUnits="userSpaceOnUse" color-interpolation-filters="sRGB">
<feFlood flood-opacity="0" result="BackgroundImageFix"/>
<feBlend mode="normal" in="SourceGraphic" in2="BackgroundImageFix" result="shape"/>
<feGaussianBlur stdDeviation="6" result="effect1_foregroundBlur_2_86"/>
</filter>
<filter id="filter35_f_2_86" x="604.175" y="-303.276" width="601.1" height="601.1" filterUnits="userSpaceOnUse" color-interpolation-filters="sRGB">
<feFlood flood-opacity="0" result="BackgroundImageFix"/>
<feBlend mode="normal" in="SourceGraphic" in2="BackgroundImageFix" result="shape"/>
<feGaussianBlur stdDeviation="6" result="effect1_foregroundBlur_2_86"/>
</filter>
<filter id="filter36_f_2_86" x="615.554" y="-300.547" width="586.993" height="586.993" filterUnits="userSpaceOnUse" color-interpolation-filters="sRGB">
<feFlood flood-opacity="0" result="BackgroundImageFix"/>
<feBlend mode="normal" in="SourceGraphic" in2="BackgroundImageFix" result="shape"/>
<feGaussianBlur stdDeviation="6" result="effect1_foregroundBlur_2_86"/>
</filter>
<filter id="filter37_f_2_86" x="626.922" y="-297.831" width="572.909" height="572.909" filterUnits="userSpaceOnUse" color-interpolation-filters="sRGB">
<feFlood flood-opacity="0" result="BackgroundImageFix"/>
<feBlend mode="normal" in="SourceGraphic" in2="BackgroundImageFix" result="shape"/>
<feGaussianBlur stdDeviation="6" result="effect1_foregroundBlur_2_86"/>
</filter>
<filter id="filter38_f_2_86" x="638.277" y="-295.127" width="558.849" height="558.849" filterUnits="userSpaceOnUse" color-interpolation-filters="sRGB">
<feFlood flood-opacity="0" result="BackgroundImageFix"/>
<feBlend mode="normal" in="SourceGraphic" in2="BackgroundImageFix" result="shape"/>
<feGaussianBlur stdDeviation="6" result="effect1_foregroundBlur_2_86"/>
</filter>
<filter id="filter39_f_2_86" x="655.177" y="-292.283" width="539.106" height="539.106" filterUnits="userSpaceOnUse" color-interpolation-filters="sRGB">
<feFlood flood-opacity="0" result="BackgroundImageFix"/>
<feBlend mode="normal" in="SourceGraphic" in2="BackgroundImageFix" result="shape"/>
<feGaussianBlur stdDeviation="6" result="effect1_foregroundBlur_2_86"/>
</filter>
<filter id="filter40_f_2_86" x="660.723" y="-292.144" width="533.42" height="533.42" filterUnits="userSpaceOnUse" color-interpolation-filters="sRGB">
<feFlood flood-opacity="0" result="BackgroundImageFix"/>
<feBlend mode="normal" in="SourceGraphic" in2="BackgroundImageFix" result="shape"/>
<feGaussianBlur stdDeviation="6" result="effect1_foregroundBlur_2_86"/>
</filter>
<filter id="filter41_f_2_86" x="666.256" y="-292.018" width="527.762" height="527.762" filterUnits="userSpaceOnUse" color-interpolation-filters="sRGB">
<feFlood flood-opacity="0" result="BackgroundImageFix"/>
<feBlend mode="normal" in="SourceGraphic" in2="BackgroundImageFix" result="shape"/>
<feGaussianBlur stdDeviation="6" result="effect1_foregroundBlur_2_86"/>
</filter>
<filter id="filter42_f_2_86" x="671.775" y="-291.906" width="522.131" height="522.131" filterUnits="userSpaceOnUse" color-interpolation-filters="sRGB">
<feFlood flood-opacity="0" result="BackgroundImageFix"/>
<feBlend mode="normal" in="SourceGraphic" in2="BackgroundImageFix" result="shape"/>
<feGaussianBlur stdDeviation="6" result="effect1_foregroundBlur_2_86"/>
</filter>
<filter id="filter43_f_2_86" x="677.279" y="-291.808" width="516.529" height="516.529" filterUnits="userSpaceOnUse" color-interpolation-filters="sRGB">
<feFlood flood-opacity="0" result="BackgroundImageFix"/>
<feBlend mode="normal" in="SourceGraphic" in2="BackgroundImageFix" result="shape"/>
<feGaussianBlur stdDeviation="6" result="effect1_foregroundBlur_2_86"/>
</filter>
<filter id="filter44_f_2_86" x="682.769" y="-291.725" width="510.957" height="510.957" filterUnits="userSpaceOnUse" color-interpolation-filters="sRGB">
<feFlood flood-opacity="0" result="BackgroundImageFix"/>
<feBlend mode="normal" in="SourceGraphic" in2="BackgroundImageFix" result="shape"/>
<feGaussianBlur stdDeviation="6" result="effect1_foregroundBlur_2_86"/>
</filter>
<filter id="filter45_f_2_86" x="688.243" y="-291.658" width="505.416" height="505.415" filterUnits="userSpaceOnUse" color-interpolation-filters="sRGB">
<feFlood flood-opacity="0" result="BackgroundImageFix"/>
<feBlend mode="normal" in="SourceGraphic" in2="BackgroundImageFix" result="shape"/>
<feGaussianBlur stdDeviation="6" result="effect1_foregroundBlur_2_86"/>
</filter>
<filter id="filter46_f_2_86" x="693.701" y="-291.607" width="499.906" height="499.906" filterUnits="userSpaceOnUse" color-interpolation-filters="sRGB">
<feFlood flood-opacity="0" result="BackgroundImageFix"/>
<feBlend mode="normal" in="SourceGraphic" in2="BackgroundImageFix" result="shape"/>
<feGaussianBlur stdDeviation="6" result="effect1_foregroundBlur_2_86"/>
</filter>
<filter id="filter47_f_2_86" x="699.143" y="-291.572" width="494.429" height="494.429" filterUnits="userSpaceOnUse" color-interpolation-filters="sRGB">
<feFlood flood-opacity="0" result="BackgroundImageFix"/>
<feBlend mode="normal" in="SourceGraphic" in2="BackgroundImageFix" result="shape"/>
<feGaussianBlur stdDeviation="6" result="effect1_foregroundBlur_2_86"/>
</filter>
<filter id="filter48_f_2_86" x="704.568" y="-291.553" width="488.985" height="488.985" filterUnits="userSpaceOnUse" color-interpolation-filters="sRGB">
<feFlood flood-opacity="0" result="BackgroundImageFix"/>
<feBlend mode="normal" in="SourceGraphic" in2="BackgroundImageFix" result="shape"/>
<feGaussianBlur stdDeviation="6" result="effect1_foregroundBlur_2_86"/>
</filter>
<filter id="filter49_f_2_86" x="709.975" y="-291.553" width="483.578" height="483.578" filterUnits="userSpaceOnUse" color-interpolation-filters="sRGB">
<feFlood flood-opacity="0" result="BackgroundImageFix"/>
<feBlend mode="normal" in="SourceGraphic" in2="BackgroundImageFix" result="shape"/>
<feGaussianBlur stdDeviation="6" result="effect1_foregroundBlur_2_86"/>
</filter>
<filter id="filter50_f_2_86" x="715.364" y="-291.57" width="478.206" height="478.206" filterUnits="userSpaceOnUse" color-interpolation-filters="sRGB">
<feFlood flood-opacity="0" result="BackgroundImageFix"/>
<feBlend mode="normal" in="SourceGraphic" in2="BackgroundImageFix" result="shape"/>
<feGaussianBlur stdDeviation="6" result="effect1_foregroundBlur_2_86"/>
</filter>
<filter id="filter51_f_2_86" x="720.734" y="-291.607" width="472.872" height="472.872" filterUnits="userSpaceOnUse" color-interpolation-filters="sRGB">
<feFlood flood-opacity="0" result="BackgroundImageFix"/>
<feBlend mode="normal" in="SourceGraphic" in2="BackgroundImageFix" result="shape"/>
<feGaussianBlur stdDeviation="6" result="effect1_foregroundBlur_2_86"/>
</filter>
<filter id="filter52_f_2_86" x="726.085" y="-291.663" width="467.578" height="467.578" filterUnits="userSpaceOnUse" color-interpolation-filters="sRGB">
<feFlood flood-opacity="0" result="BackgroundImageFix"/>
<feBlend mode="normal" in="SourceGraphic" in2="BackgroundImageFix" result="shape"/>
<feGaussianBlur stdDeviation="6" result="effect1_foregroundBlur_2_86"/>
</filter>
<filter id="filter53_f_2_86" x="731.416" y="-291.739" width="462.324" height="462.323" filterUnits="userSpaceOnUse" color-interpolation-filters="sRGB">
<feFlood flood-opacity="0" result="BackgroundImageFix"/>
<feBlend mode="normal" in="SourceGraphic" in2="BackgroundImageFix" result="shape"/>
<feGaussianBlur stdDeviation="6" result="effect1_foregroundBlur_2_86"/>
</filter>
<filter id="filter54_f_2_86" x="736.725" y="-291.836" width="457.111" height="457.111" filterUnits="userSpaceOnUse" color-interpolation-filters="sRGB">
<feFlood flood-opacity="0" result="BackgroundImageFix"/>
<feBlend mode="normal" in="SourceGraphic" in2="BackgroundImageFix" result="shape"/>
<feGaussianBlur stdDeviation="6" result="effect1_foregroundBlur_2_86"/>
</filter>
<filter id="filter55_f_2_86" x="742.013" y="-291.955" width="451.942" height="451.942" filterUnits="userSpaceOnUse" color-interpolation-filters="sRGB">
<feFlood flood-opacity="0" result="BackgroundImageFix"/>
<feBlend mode="normal" in="SourceGraphic" in2="BackgroundImageFix" result="shape"/>
<feGaussianBlur stdDeviation="6" result="effect1_foregroundBlur_2_86"/>
</filter>
<filter id="filter56_f_2_86" x="747.278" y="-292.097" width="446.819" height="446.819" filterUnits="userSpaceOnUse" color-interpolation-filters="sRGB">
<feFlood flood-opacity="0" result="BackgroundImageFix"/>
<feBlend mode="normal" in="SourceGraphic" in2="BackgroundImageFix" result="shape"/>
<feGaussianBlur stdDeviation="6" result="effect1_foregroundBlur_2_86"/>
</filter>
<filter id="filter57_f_2_86" x="752.52" y="-292.262" width="441.741" height="441.742" filterUnits="userSpaceOnUse" color-interpolation-filters="sRGB">
<feFlood flood-opacity="0" result="BackgroundImageFix"/>
<feBlend mode="normal" in="SourceGraphic" in2="BackgroundImageFix" result="shape"/>
<feGaussianBlur stdDeviation="6" result="effect1_foregroundBlur_2_86"/>
</filter>
<filter id="filter58_f_2_86" x="757.738" y="-292.45" width="436.713" height="436.713" filterUnits="userSpaceOnUse" color-interpolation-filters="sRGB">
<feFlood flood-opacity="0" result="BackgroundImageFix"/>
<feBlend mode="normal" in="SourceGraphic" in2="BackgroundImageFix" result="shape"/>
<feGaussianBlur stdDeviation="6" result="effect1_foregroundBlur_2_86"/>
</filter>
<filter id="filter59_f_2_86" x="769.265" y="-290.836" width="423.571" height="423.571" filterUnits="userSpaceOnUse" color-interpolation-filters="sRGB">
<feFlood flood-opacity="0" result="BackgroundImageFix"/>
<feBlend mode="normal" in="SourceGraphic" in2="BackgroundImageFix" result="shape"/>
<feGaussianBlur stdDeviation="6" result="effect1_foregroundBlur_2_86"/>
</filter>
<filter id="filter60_f_2_86" x="775.594" y="-289.013" width="415.419" height="415.419" filterUnits="userSpaceOnUse" color-interpolation-filters="sRGB">
<feFlood flood-opacity="0" result="BackgroundImageFix"/>
<feBlend mode="normal" in="SourceGraphic" in2="BackgroundImageFix" result="shape"/>
<feGaussianBlur stdDeviation="6" result="effect1_foregroundBlur_2_86"/>
</filter>
<filter id="filter61_f_2_86" x="781.917" y="-287.194" width="407.277" height="407.277" filterUnits="userSpaceOnUse" color-interpolation-filters="sRGB">
<feFlood flood-opacity="0" result="BackgroundImageFix"/>
<feBlend mode="normal" in="SourceGraphic" in2="BackgroundImageFix" result="shape"/>
<feGaussianBlur stdDeviation="6" result="effect1_foregroundBlur_2_86"/>
</filter>
<filter id="filter62_f_2_86" x="788.235" y="-285.382" width="399.147" height="399.147" filterUnits="userSpaceOnUse" color-interpolation-filters="sRGB">
<feFlood flood-opacity="0" result="BackgroundImageFix"/>
<feBlend mode="normal" in="SourceGraphic" in2="BackgroundImageFix" result="shape"/>
<feGaussianBlur stdDeviation="6" result="effect1_foregroundBlur_2_86"/>
</filter>
<filter id="filter63_f_2_86" x="794.547" y="-283.576" width="391.029" height="391.029" filterUnits="userSpaceOnUse" color-interpolation-filters="sRGB">
<feFlood flood-opacity="0" result="BackgroundImageFix"/>
<feBlend mode="normal" in="SourceGraphic" in2="BackgroundImageFix" result="shape"/>
<feGaussianBlur stdDeviation="6" result="effect1_foregroundBlur_2_86"/>
</filter>
<filter id="filter64_f_2_86" x="800.853" y="-281.776" width="382.924" height="382.924" filterUnits="userSpaceOnUse" color-interpolation-filters="sRGB">
<feFlood flood-opacity="0" result="BackgroundImageFix"/>
<feBlend mode="normal" in="SourceGraphic" in2="BackgroundImageFix" result="shape"/>
<feGaussianBlur stdDeviation="6" result="effect1_foregroundBlur_2_86"/>
</filter>
<filter id="filter65_f_2_86" x="807.151" y="-279.983" width="374.832" height="374.832" filterUnits="userSpaceOnUse" color-interpolation-filters="sRGB">
<feFlood flood-opacity="0" result="BackgroundImageFix"/>
<feBlend mode="normal" in="SourceGraphic" in2="BackgroundImageFix" result="shape"/>
<feGaussianBlur stdDeviation="6" result="effect1_foregroundBlur_2_86"/>
</filter>
<filter id="filter66_f_2_86" x="813.442" y="-278.198" width="366.756" height="366.756" filterUnits="userSpaceOnUse" color-interpolation-filters="sRGB">
<feFlood flood-opacity="0" result="BackgroundImageFix"/>
<feBlend mode="normal" in="SourceGraphic" in2="BackgroundImageFix" result="shape"/>
<feGaussianBlur stdDeviation="6" result="effect1_foregroundBlur_2_86"/>
</filter>
<filter id="filter67_f_2_86" x="819.725" y="-276.421" width="358.696" height="358.696" filterUnits="userSpaceOnUse" color-interpolation-filters="sRGB">
<feFlood flood-opacity="0" result="BackgroundImageFix"/>
<feBlend mode="normal" in="SourceGraphic" in2="BackgroundImageFix" result="shape"/>
<feGaussianBlur stdDeviation="6" result="effect1_foregroundBlur_2_86"/>
</filter>
<filter id="filter68_f_2_86" x="825.999" y="-274.652" width="350.653" height="350.653" filterUnits="userSpaceOnUse" color-interpolation-filters="sRGB">
<feFlood flood-opacity="0" result="BackgroundImageFix"/>
<feBlend mode="normal" in="SourceGraphic" in2="BackgroundImageFix" result="shape"/>
<feGaussianBlur stdDeviation="6" result="effect1_foregroundBlur_2_86"/>
</filter>
<filter id="filter69_f_2_86" x="832.264" y="-272.893" width="342.628" height="342.628" filterUnits="userSpaceOnUse" color-interpolation-filters="sRGB">
<feFlood flood-opacity="0" result="BackgroundImageFix"/>
<feBlend mode="normal" in="SourceGraphic" in2="BackgroundImageFix" result="shape"/>
<feGaussianBlur stdDeviation="6" result="effect1_foregroundBlur_2_86"/>
</filter>
<filter id="filter70_f_2_86" x="838.52" y="-271.143" width="334.623" height="334.623" filterUnits="userSpaceOnUse" color-interpolation-filters="sRGB">
<feFlood flood-opacity="0" result="BackgroundImageFix"/>
<feBlend mode="normal" in="SourceGraphic" in2="BackgroundImageFix" result="shape"/>
<feGaussianBlur stdDeviation="6" result="effect1_foregroundBlur_2_86"/>
</filter>
<filter id="filter71_f_2_86" x="844.764" y="-269.404" width="326.64" height="326.64" filterUnits="userSpaceOnUse" color-interpolation-filters="sRGB">
<feFlood flood-opacity="0" result="BackgroundImageFix"/>
<feBlend mode="normal" in="SourceGraphic" in2="BackgroundImageFix" result="shape"/>
<feGaussianBlur stdDeviation="6" result="effect1_foregroundBlur_2_86"/>
</filter>
<filter id="filter72_f_2_86" x="850.997" y="-267.677" width="318.68" height="318.68" filterUnits="userSpaceOnUse" color-interpolation-filters="sRGB">
<feFlood flood-opacity="0" result="BackgroundImageFix"/>
<feBlend mode="normal" in="SourceGraphic" in2="BackgroundImageFix" result="shape"/>
<feGaussianBlur stdDeviation="6" result="effect1_foregroundBlur_2_86"/>
</filter>
<filter id="filter73_f_2_86" x="857.217" y="-265.962" width="310.745" height="310.745" filterUnits="userSpaceOnUse" color-interpolation-filters="sRGB">
<feFlood flood-opacity="0" result="BackgroundImageFix"/>
<feBlend mode="normal" in="SourceGraphic" in2="BackgroundImageFix" result="shape"/>
<feGaussianBlur stdDeviation="6" result="effect1_foregroundBlur_2_86"/>
</filter>
<filter id="filter74_f_2_86" x="863.424" y="-264.261" width="302.837" height="302.837" filterUnits="userSpaceOnUse" color-interpolation-filters="sRGB">
<feFlood flood-opacity="0" result="BackgroundImageFix"/>
<feBlend mode="normal" in="SourceGraphic" in2="BackgroundImageFix" result="shape"/>
<feGaussianBlur stdDeviation="6" result="effect1_foregroundBlur_2_86"/>
</filter>
<filter id="filter75_f_2_86" x="869.616" y="-262.575" width="294.959" height="294.959" filterUnits="userSpaceOnUse" color-interpolation-filters="sRGB">
<feFlood flood-opacity="0" result="BackgroundImageFix"/>
<feBlend mode="normal" in="SourceGraphic" in2="BackgroundImageFix" result="shape"/>
<feGaussianBlur stdDeviation="6" result="effect1_foregroundBlur_2_86"/>
</filter>
<filter id="filter76_f_2_86" x="875.791" y="-260.905" width="287.114" height="287.114" filterUnits="userSpaceOnUse" color-interpolation-filters="sRGB">
<feFlood flood-opacity="0" result="BackgroundImageFix"/>
<feBlend mode="normal" in="SourceGraphic" in2="BackgroundImageFix" result="shape"/>
<feGaussianBlur stdDeviation="6" result="effect1_foregroundBlur_2_86"/>
</filter>
<filter id="filter77_f_2_86" x="881.949" y="-259.253" width="279.304" height="279.304" filterUnits="userSpaceOnUse" color-interpolation-filters="sRGB">
<feFlood flood-opacity="0" result="BackgroundImageFix"/>
<feBlend mode="normal" in="SourceGraphic" in2="BackgroundImageFix" result="shape"/>
<feGaussianBlur stdDeviation="6" result="effect1_foregroundBlur_2_86"/>
</filter>
<filter id="filter78_f_2_86" x="888.088" y="-257.619" width="271.532" height="271.532" filterUnits="userSpaceOnUse" color-interpolation-filters="sRGB">
<feFlood flood-opacity="0" result="BackgroundImageFix"/>
<feBlend mode="normal" in="SourceGraphic" in2="BackgroundImageFix" result="shape"/>
<feGaussianBlur stdDeviation="6" result="effect1_foregroundBlur_2_86"/>
</filter>
</defs>
</svg>
